<mxfile host="Electron" modified="2024-02-26T11:03:19.672Z" agent="Mozilla/5.0 (Macintosh; Intel Mac OS X 10_15_7) AppleWebKit/537.36 (KHTML, like Gecko) draw.io/23.1.5 Chrome/120.0.6099.109 Electron/28.1.0 Safari/537.36" etag="xrBlTyt9hZGJQ7OCFj_9" version="23.1.5" type="device">
  <diagram name="페이지-1" id="lqzCa8ndctXkcibkGWXF">
    <mxGraphModel dx="2049" dy="1220" grid="1" gridSize="10" guides="1" tooltips="1" connect="1" arrows="1" fold="1" page="1" pageScale="1" pageWidth="1600" pageHeight="900" math="0" shadow="0">
      <root>
        <mxCell id="0" />
        <mxCell id="1" parent="0" />
        <mxCell id="3rU5uwpI67zHj25wgRQa-1" value="" style="shape=image;verticalLabelPosition=bottom;labelBackgroundColor=default;verticalAlign=top;aspect=fixed;imageAspect=0;image=data:image/png,iVBORw0KGgoAAAANSUhEUgAAAnYAAAEYCAYAAADRQrtOAAAAAXNSR0IArs4c6QAAIABJREFUeF7tnQm81NP//9+3fd/3hRYly1dC5WvLEm36EmUXUpYsbVQiLbKFirTIklAipCgiUUJZooQ2ikral9u+3f/jdfw+9z9Nd+6de2func+deZ7Hw0PNfD5neZ4znee8zzmfSXr//fdTKlasaDVq1LDixYtbSkqKkSAAAQhAAAIQgAAE/E8gKSnJkpOTbdWqVbZ+/XpL+uabb1JOOeUUK1SokOXJk8f/LaCGEIAABCAAAQhAAAKpBA4fPmx79+61RYsWWdK6detSKlSogNQxQCAAAQhAAAIQgEAuJSC527BhgyUlJyenFCtWLJc2g2pDAAIQgAAEIAABCIjAzp07ETuGAgQgAAEIQAACEIgHAohdPPQibYAABCAAAQhAAAJE7BgDEIAABCAAAQhAIH4IELGLn76kJRCAAAQgAAEIJDgBxC7BBwDNhwAEIAABCEAgfgggdvHTl7QEAhCAAAQgAIEEJ4DYJfgAoPkQgAAEIAABCMQPAcQufvqSlkAAAhCAAAQgkOAEELsEHwA0HwIQgAAEIACB+CGA2MVPX9ISCEAAAhCAAAQSnABil+ADgOZDAAIQgAAEIBA/BBC7+OlLWgIBCEAAAhCAQIITQOwSfADQfAhAAAIQgAAE4ocAYhc/fUlLIAABCEAAAhBIcAKIXYIPAJoPAQhAAAIQgED8EEDs4qcvaQkEIAABCEAAAglOALFL8AFA8yEAAQhAAAIQiB8CiF389CUtgQAEIAABCEAgwQkgdgk+AGg+BCAAAQhAAALxQwCxi5++pCUQgAAEIAABCCQ4AcQuwQcAzYcABCAAAQhAIH4IIHbx05e0BAIQgAAEIACBBCeA2CX4AKD5EIAABCAAAQjEDwHELn76kpZAAAIQgAAEIJDgBBC7BB8ANB8CEIAABCAAgfghgNjFT1/SEghAAAIQgAAEEpwAYpfgA4DmQwACEIAABCAQPwQQu/jpS1oCAQhAAAIQgECCE0DsEnwA0HwIQAACEIAABOKHAGIXP31JSyAAAQhAAAIQSHACiF2CDwCaDwEIQAACEIBA/BBA7OKnL2kJBCAAAQhAAAIJTgCxS/ABQPMhAAEIQAACEIgfAohd/PQlLYEABCAAAQhAIMEJIHYJPgBoPgQgAAEIQAAC8UMAsYufvqQlEIAABCAAAQgkOAHELsEHAM2HAAQgAAEIQCB+CCB28dOXtAQCEIAABCAAgQQnkKvEbvfu3VaoUCHLkydPgndb9Jp/55132pw5c6xq1ar2ySefRC9jcoIABCAAAQhAIMcJ+F7stmzZYv3797cZM2bYsmXLrHjx4nbeeedZt27d7KKLLspxYKrPZ599Znnz5rXLLrvM/T/S9PXXX9stt9xyRDYlS5a0mjVrWsOGDa1z585WpEiRSItJ8/6WLVvaRx995Lju2LEjW8ogUwhAAAIQgAAEcoaAr8VOwtOmTRvbsGFDmjTGjRtn7du3zxlS/1eKolrNmjVzf9u+fbuVKFEi4vJnzZqVrqRWq1bNvv/+e6tYsWLEZQVngNhFHSkZQgACEIAABGJGwLdip4rVrl07VeokU23btrX9+/fbs88+a1qWXbBggZUvXz5H4Y0dO9Y6dOiQbWJ37733ukjg8uXLbfz48fbll1+6sl588UXr2LFj1NuK2EUdKRlCAAIQgAAEYkbAt2LXt29fGzRokANz3XXX2RtvvGFJSUnu75K69evXu6VKpYkTJ9oLL7xgJ598svXr18+6d+9ur7/+urVu3dqmTp3qrvnggw9syJAh9sUXX9hpp53mom733XeflSlTxr2/Z88eJ1Jvvvmmfffdd+61888/326//XZr1aqV+/u1115r3377rf3xxx/u72effbblz5/fevbsaS1atAirnLR6OjBip3bcdttt7rIlS5bYCSec4P7cqVMnGzNmjPvzunXr7OWXX7bJkyc7ua1QoYJrT58+faxevXpHFCFWzz//vKkMLWfXrVvXRUEffPBBt/yaltgtXrzYunTpYocPH3b5Pfroo3bllVe6fK+++mq744473J/FSW1Xeuihh1Kjjloi170qQ2Kq/lGd27VrZxLX+vXrx2zAUzAEIAABCEAgngn4Vuw0+S9atMixT05OtmLFioXsh6eeesoJhkTllFNOsa+++spde/fdd9vw4cPtkUcesYcffvio+y+++GKbNm2ak7NLL73U/TmtNHfuXCdxnlgGX+PJWDjlZEbsAqODI0aMcHvtJKBakhWT4KQl2x9++MGJnpI6V9E/SV1wmj59upPRYLHbunWrnXHGGU5exVMiW6pUKatcubLLomvXrjZ06FD358Bl6cBl8VCcdI/qpn7NjmXleP6g0jYIQAACEIBAOAR8KXYHDx50sqWk6JpkJb3kiZ13jaJXEjXdW7hwYfd/JUXwFNXS3r0ePXq41yRPN998s3388cd21VVXWa9evaxx48amqJUOaCjp9bfeestFASVxnjiOGjXKHWpo1KiRE65wyslI7E488USrU6eOffPNN6nL0GeeeaaTM7VFSW2YMmWKi37p2gkTJrgIntLo0aNdlFHp+uuvd+8piYmWcv/66y/bvHmzi8IpBYqdpE7RPEU3lRThu+SSS+yff/7JstjdeuutrgxFXBVhVFJEUhxJEIAABCAAAQhEl4AvxW7VqlWpy6xahtUSaXopUOwUhZOkeY9EkagNHjzY3a7GFi1a9Aih8aJ6elFyJnnau3evO4EryVHkSsuXS5cudfdJjjyJCjw8kZlygtuS0eEJLX1KxLxlY+0zzJcvn2uj6qAlUbVbyWuP5FjXK7InWdQ1aZ2sDRQ7ya5OICsp0qm8lLIqdpJJ9YXSrl27nByqPoqqLly4MLojmdwgAAEIQAACEHCuk5ScnJyS3lJnTnOSBHj10RKolkLDFTtFuhTh8lLz5s1d5ClUOvfcc91z3JTee+8905JnWkuXKSkp6YpdZspJT+x0MENLpNqTNm/evNSIWyAH7ZtTpPG5555zAhqYdK+WWX/88cfUCGLv3r3t8ccfTxOBJ3bBbwYuf2dV7CTGYuqlc845JzXaeeDAASenJAhAAAIQgAAEokfAl2Kn5lWvXt3WrFnjWpqRBARG7HSYoEGDBqmELrjgAndgQkl7xoKTlhrfeecdd7DCW57VXjUt2+p5dZ44ZSR24ZaTVteFOjyha/V8u1dffdXdtnr1ahf10kEGLcUq6Tl3F154oT355JPu757YzZ492x3+UBo4cKDpMEpaKZTY3X///amRzkCx0/KvTiUrZbTHLljstGTtHUzJqE+jN8TJCQIQgAAEIJA4BHwrdjfeeKPbl6Wkgw8DBgxI7ZVDhw65fXcSBaX0xE5Li969mzZtsrJlyx7VuzphW6lSJfe6Tm5qL13BggXt8ssvTxUoT+z0Sw3ax6Yk4fEOAYRTTqhhlZ7Y3XXXXTZy5Eh3qw4ySHavuOIK9/dnnnnGnQBW8g4seGKniJv3jD2JnyQ1I7GTJOqk8dtvv+0u1bPzTj/9dLfcqwMUSoEnjRWN807LpnV4IlDsFGX0lsHTq0/ifPRoKQQgAAEIQCD6BHwrdtrbpufYeUkHGSQVEhY9vuPTTz91siJJSE/sAqNKkp6XXnrJqlSpYitWrLD58+e7AwaBjxWRuA0bNsw9pkNi4p0+9cROkTEtbSppKVQHFbSfTcvF3oOLQ5UTjtjpZK32FUrgdEhDByWUFG3U4QYtwerRJ0oSX4nVK6+8YhJAJU/s9GdJmSKYSorYaa+eDk9oz6LaqF/NCIzYSVTVTu8ErPbCSaC1ZOqdUlY9dJBEEbcbbrghlU9aYqcTsDq8cdxxx7nH0OgaJbXJO7wR/SFNjhCAAAQgAIHEJeBbsVOXKDIm0QqVJHtaQk1P7PQ8tXvuuSc16hWc188//+yeFVe6dOk0HyHiXe+JnQRO+/ICkw4a6FEkGZWj5+yllTI6POFJpPJXfSVcoVKg2GmfXZMmTdJslwTXO7Ea/JNiepyJFwkUWz3vT4+T0Z9DpXAfd6KDKNo7KN4kCEAAAhCAAASiS8DXYqemavlRpzO9vVl6rVatWi7qIzFRSk/s9L7kTpGw1157LfXhwnpd9yuSpP18OkChR6R4ETpF37T/ztt354md7nvsscfcw3e9pMelKJIWTjmZETs9PuU///mPa7+eLeelwP2Aek373nTgRKd1A8XO4ycx837BQq+pbYrY6eHDaT2gWKduVa63v1BRvn379rn7vIcz66StHjzctGlT91iWtMROEqfk5aM9fxLKwEhsdIczuUEAAhCAAAQSm4Dvxc7rHj2KZOXKle4Bt+XKlctyr2mJU3nVqFEj9Vl5Xmbau6ef8tK+uYwiSlqKlLAUKlTI7UvzHq/i5ZVeOVmufMCN2rOmx8JIclWHjJKul5RJYkuWLJnR5Wm+Lz7qAz02RcvZoZK330/LxJMmTbLff//d7dGLpN+yVGFuggAEIAABCCQYgVwjdgnWL7m6uZ7YBZ+KzdWNovIQgAAEIACBXEAAscsFnZTbqojY5bYeo74QgAAEIBAvBBC7eOlJH7VDew61bKvnCXqHMHxUPaoCAQhAAAIQiFsCiF3cdi0NgwAEIAABCEAg0QggdonW47QXAhCAAAQgAIG4JYDYxW3X0jAIQAACEIAABBKNAGKXaD1OeyEAAQhAAAIQiFsCiF3cdi0NgwAEIAABCEAg0QggdonW47QXAhCAAAQgAIG4JYDYxW3X0jAIQAACEIAABBKNAGKXaD1OeyEAAQhAAAIQiFsCiF3cdi0NgwAEIAABCEAg0QggdonW47QXAhCAAAQgAIG4JYDYxW3X0jAIQAACEIAABBKNAGKXaD1OeyEAAQhAAAIQiFsCiF3cdi0NgwAEIAABCEAg0QggdonW47QXAhCAAAQgAIG4JYDYxW3X0jAIQAACEIAABBKNAGKXaD1OeyEAAQhAAAIQiFsCiF3cdi0NgwAEIAABCEAg0QggdonW47QXAhCAAAQgAIG4JYDYxW3X0jAIQAACEIAABBKNAGKXaD1OeyEAAQhAAAIQiFsCiF3cdi0NgwAEIAABCEAg0QggdonW47QXAhCAAAQgAIG4JYDYxW3X0jAIQAACEIAABBKNAGKXaD1OeyEAAQhAAAIQiFsCiF3cdi0NgwAEIAABCEAg0QggdonW47QXAhCAAAQgAIG4JYDYxW3X0jAIQAACEIAABBKNAGKXaD1OeyEAAQhAAAIQiFsCiF3cdi0NgwAEIAABCEAg0QggdonW47QXAhCAAAQgAIG4JYDYxW3X0jAIQAACEIAABBKNAGLnwx7/4osvrFKlSlavXr2Ia7dp0yabM2eOXXHFFRHnlR0ZTJo0yS666CIrU6ZMdmQflTzfffdda9KkiZUrVy4q+fk5k5SUFNuwYYNVrFjRz9WkbhCAAAQgEIKAL8Xu1VdftZ9//vmoKp944ol26623xrwz9+7da8uWLbNTTjklW+rSpUsXa9y4sV133XUR5y+ODz30kE2ZMiXivLIjg0svvdSeeuopO+GEEzKdfXb3g1ch1fGxxx7Ltv7OdMODbti6dasNGjTIvVq6dGn7z3/+Y2eddZaVL1/evRb4fr58+Zy0XXLJJXbyyScfVbS+VDz99NM2YcIEK1GiRKarpi8S+kelRo0amb6XGyAAAQhAIHICvhS7xYsXmyaIHTt22JgxY6xTp05WsmRJFzFJazKKHEPmcvjjjz/svvvus/feey9zN4Z5NWIXHqjs7ofcInbr1q1znxGNm23bttlXX31lf/31l40YMcIqV65s3vv333+/a9KPP/5oM2fOtCFDhljdunWPgC1ZXrp0qdWvXz+8Tgi6StFNfX779euXpfu5CQIQgAAEIiPgS7HzmiS5u/nmm+2VV16xChUquJcPHjxon376qYvoHXPMMXb55ZdboUKF0qSgyW3WrFm2ZcsWO++88+yMM85w9+3fv992795tc+fOdZPhvn37nKQlJyfbOeec465T0v2ffPKJbd682U499VRr1qyZE05FFL/88ktr06aNmxgVHVFUJK08Aiumuqs+ixYtctGQVq1aWdWqVY+qu+rUoEEDK1KkiKuDonfnnnuuu2779u02Y8YMW7lyZWr7Cxcu7N47fPiwffbZZ7Zw4UIXlVH9dF1gxE71Vqdr+fPNN9+0tm3bWtGiRU0T+sSJE+3qq6825ad216xZ03766Sf7888/j6hDekNOZX/++eeWP39+u/jii1PFYfny5fbRRx+5vlK0yIvoBEfsVL/58+dbtWrVrEWLFk7ovXZLRlasWGEnnXSSq8+4ceOO6ofAuoVipaXGb7/91n1J+Pjjj90ysPpCHJQ0HsR4yZIldvrpp9tzzz1njzzyyFERO40lXSvuGkunnXaa66e8efO6cRqqr8X2+OOPd4IlOVVfaBy9//77rm/Ub96yr/JRtPX33393kbjmzZtbUlLSEV3giZsXZdNy6gMPPODyev7551PFLjAKp35W37dr1+6IvMRG9bvhhhvc62KsPlLfKb/LLrvMyaKSyp06dar73Kg/ypYtay+++KL7LJx//vmOxbHHHhuSQ3p5K3/xkaQqytiyZUs33sP5nEX2TyJ3QwACEMjdBHKV2GnCkqSsXr3aSYP2jmlSVVRPk2lg0qTcq1cvJ2kSlO+++85FKN544w2bPn26kybJ3pVXXmkdOnRw4qYJa9q0adazZ083obdv395Jmyb+t99+2zp37uyu02QpOWvdurWboPXaLbfcclQeZ5555hF1euutt5yISB41aUnaNNkGT9QSO03kF154oZONDz74wO655x4nlr1793Z11/67Dz/80C1hahIXm4EDB9qvv/7qJmJFXS644AInxJ7Yqcz+/fu7pU+J3/XXX28vv/yy+7PkV+3VZKsJOr06hBry6pc777zTyaHaJCF88MEHnUyrDpICifG8efNcn0leAsVOLCTHEg7J3Z49e2zUqFEucqv2FytWzMmCJntFqN55550j+sGTX69+oVipPmKmflVfSEQli6qjJ0Wqu2RPYquxlNZSrFhJuqpUqeLulyTecccdTkjT62uxFauGDRs6UVeES8umknn1n2Rx7Nixrhk9evSwXbt2OVFSf6uNt99+e7pipzc13gcMGODEa/369Y7XCy+84O77/vvvnYClFbHz2KgsJfWPxqA+K9p+sHbtWsddnK655honu2r77NmzXb9rPKn+ul77EhcsWBByzIfKW+Wq3hojukZyq/+0DSOcz1nu/ieZ2kMAAhCIjECuEjtFfbp16+YiZpICRQoUWdBrmvgCU58+fZwAabIOTN5krIlT0SDlpcl72LBh7jK9LuHSUpImLwmKJpUnn3zSDh06ZA8//LATk8GDB6cuxaaXR2DZXn56bc2aNU4CNNkGR+008WvC9PYT6hpFwkaOHJlaJ+WhKIomUk20EkHdF5yfJ1WaJCVdd911l4sQSSgyErtQdQg15DxxHD16dGpUR9eqXp4o6++SNEXtJMae2B133HEuUvXEE0+4SJqiqjrwobzEW0t86rsCBQqkFh/cD8H1CuQdyMqTFy+CpQiV+ITiGGqPneqjSJ2Y58mTx42RAwcOpAqiJ+zBfS0eitCpLxQplchqLKicVatW2d133+2EX3/u27evk0RFOjUGJGvBWwCCI3biIJnT+PHqJrETO41h/SfeysuLiHrs0hI7fZb0BWfjxo1OrCSF2suneutLkCTOS1r+lbx7S7HpjXm1N628dXBIkXhPkr28w/2cRfZPIndDAAIQyN0EcpXY6Vu8ImeKunlJkqCIWfChCkmBJzHBYqdo2zPPPONe1sSpv2uiUhIQ/VmTlyIbkydPdst/mgy1rKT7goUivTwCy9Yk/vrrr9vXX3/tXtZEKUHUoZDAFLzHTkt6ihJqQlekRzKnKI8me+2pUnRFUT3JgJZXA5M3USsipPJee+01F6kKR+wCD3AE1iHUkBejoUOHmjbgK/okmdDymfpC4qOIm5KW0xTV8mRGEUQt/0poVDddqyRBkJgrEiZJl0QEpozELhSrYHkRS0X3xFERW42vQI7piV3gWFLfKkIlBun1dXD/SpD05eTss89OFT1JvPJ66aWXjliWVX9LQAO3H6Qldl4bJcSKxqovPJHV9ZJQ9Yd36CI9sQs83CIW3pjV51FjUZFuRb0bNWrk9vUFil16HIKX4b28ixcv7r6EeNFjr27hfs5y9z/J1B4CEIBAZARyldhpCU5iFRix0B48Lacq+hOY9Lpe03vpid3w4cNddMPbWK5rtafnn3/+cZEmiYWWVCVEipikJXah8vD2bAVOTFpeVDRDk1fgJJme2Clio/1lWpbU8pf2WSly8ttvv6UKiZZ4dZox+PSrN8Fr0tWytSIoitQo2nnttde6KKDkK62l2ECx8+og4c0oSRx0nSKhepxJx44d3R4pRem8VLBgQScn3uSuPXWqj5YHAx+1IYaSBe39evTRR8MWO0VZQ7FKT+y0pPjss88eMcayInaSkFB9nZbYde/e3UXFtIypMat+kZhqvHnLsl7jg6NsaYmdxoqWsxXlSut9RTDVR8HRv7QidqHETvXRMrH2BkqExU0SHih26XEIJXbVq1d3Y0F7G2vVqpXa5+F+zjIan7wPAQhAIJ4J5CqxU5RJ+8BuvPFGN/kpiqToSFrLmZIB7cHTZKBlW4mP9vwoChAYZdEmegmD9lBpr5AOSmi/nneNxERRB01QEj5NtL/88ovbvzd+/Hi3lBUqj1KlSh0lm5IbPcZE9VHUJFTETocrJJUSMEUetafwqquucvdqotVSnpYpNUEr0qQomLhon5OWWP/++28nFqq79pMp8qi8JIT6u2RV12rJS0ugiggq0ha4xy6tOkjSFDVVuTrUErg/UPvDJI9aStWfFWETP0mxpFzL3YrIadlYE7bu1eQuDmKvvWPar6Z9eeoDHSyoXbu2i5AqsqT9gdozqUiq2i/xCeyHQNjalxeKVXpi5y1hKpqoPXZaalX9Qu2xCxWx0xeLUH0drthpbGm8Ky/1k5anJbgSn8DkiZskTh9ojXv1kfelJFDsJNTaM6jPjWQ6qxE7bR9Qv6iNklGNJfWb9uFpz6KkUZHX9DiEEjvvsUb63OpLiCLB+swppfVZ1edMY0P36TNCggAEIJDIBHKF2Cli4T2TS1EgTUYSFu0Z0hJW8KZ5dagiNpoUtO9LSZOYhEiCo8lY0S0vST60/CaZ0CSiR5loeVdCpUiWytGJRMGS2GmClYRoaVMSo31haeURXC9F0zThqRwdfpDg6LRl8DPcunbt6qRHYqP66NETaovEUv/XxnjloQiPBNHb6C7hUV3ERkn1lwRowvUieaqnlvIkW1q+1fKhylB0U3/3lmolH5JFyXRwHXTyVmLgXetxVLRLIi258/bIaYlO9z/++ONOBMRSJ2YleVrC0xK6/i5JFWtJpzboq32qu/ITC/WP6q68FOnTGJAcBvdD4Ic5FKvApVddH/x3b4lRZSmaKZlSlFVjIDCp/YFjSSw1PjVG0utr9a/EWhFFJS3FphWxU9mKEksqvT5V5DPU4QnlJW4aT+pPLe0qeWLn1V1RUI1vHQYKjv4Fs5B86bPiPSzbizJr6Vx9oOicUp06dVw9JcZaUleS7KmsUGM+VN4SNDGXtOszpqQ9tPpchvqcaYzrPn2pIUEAAhBIZAK+Frv0OkYSoL1wwSdKg+/RhKiIQvAEFnydlig1SelEqLfHS68pgqfX0ipHk4/yVRREKa08gsvRY1YkPt5+s/TaqLpLUIOvlXBpwgw8SBCYj9qhKIZEMKPkCUPwI2MkdpIPRfN0IEBLx16SkEqaJDZpJTHT9cH1Uz9o6S7wVyaUt+Qx8FcdFFlUCixTfxc39XvwL0AE90NgnTJiFYqPuOvDERx1zYhn4PuZ6euM8hVTjQNvrGV0fU69n1ZfiZ3qqxPZ+txEwkFjw1u299oUzucsp9pPORCAAAT8RiDXip3fQMZbfdJ7SLJOMmpJV1EaEgQgAAEIQAAC/iGA2PmnL3xVEy1/ax+bt5znq8pRGQhAAAIQgAAE0iSA2DEwIAABCEAAAhCAQJwQQOzipCNpBgQgAAEIQAACEEDsGAMQgAAEIAABCEAgTgggdnHSkTQDAhCAAAQgAAEIIHaMAQhAAAIQgAAEIBAnBBC7OOlImgEBCEAAAhCAAAQQO8YABCAAAQhAAAIQiBMCiF2cdCTNgAAEIAABCEAAAogdYwACEIAABCAAAQjECQHELk46kmZAAAIQgAAEIAABxI4xAAEIQAACEIAABOKEAGIXJx1JMyAAAQhAAAIQgABixxiAAAQgAAEIQAACcUIAsYuTjkyUZmzZssU2bdpkKSkpidJk2gkBCEAAAj4lkJSUZOXKlbMyZcr4poaInW+6goqEQ2DZsmVWtWpVy5cvXziXcw0EIAABCEAg2wgcPHjQ1q5da3Xr1s22MjKbMWKXWWJcH1MCS5cutRo1asS0DhQOAQhAAAIQ8AisWrXKjj/+eN8AQex80xVUJBwCiF04lLgGAhCAAARyigBil1OkKScuCSB2cdmtNAoCEIBAriWA2OXarqPifiCA2PmhF6gDBCAAAQiwFMsYgEAUCCB2UYBIFhCAAAQgEDUCROyihpKMEpEAYpeIvU6bIQABCPiXAGLn376hZrmAAGKXCzqJKkIAAhBIIAKIXQJ1Nk2NPgHELvpMyRECEIAABLJOALHLOjvuhIBFU+zeffddu/DCC6106dJRIfvll19apUqVrE6dOlHJT5ls3brVPvvsM2vbtm2W8ly+fLn9888/du6552bpfm6CAAQgAIH0CSB2YY6QQYMG2caNG61o0aJ28sknW8OGDY+YML338+TJ437OQ+9fcsklaeauay+//HKXT1bSTz/9ZCeeeKIVKFAgK7dzTxQJRFPsNGbeeOONqD1YskuXLnbWWWfZ1VdfHbUWq7033HBPDHfnAAAgAElEQVSDfffdd1nK8+2337avvvrKnn322Szdz00QgAAEIIDYRWUMXHzxxXbllVda9erV7ccffzRNUKNHj3YTp5Le1wQqWVNUYuTIkdatWze76qqrjipf1/bt29fOO++8LNXtv//9r02aNMmqVauWpfu5KXoEELvMsUTsMseLqyEAAQhklgARuzCJBcvYxIkT7bHHHnORi4IFCzqxC5Q1ReW2b99uTz31VLpi9/PPP9v+/fvt0KFDpqWz008/3S1T5c2b1/bt22fvvPOO/fXXX1avXj1r1aqVvffee67cDh06OMmUbEo058yZ4/LQUt6pp57qykwvb72vfGfNmuV+xP7888+3M844w903d+5c+/rrr+2YY46xli1bWokSJcKklHiXZVbsFJET0xkzZph+ZqV169ZuuVRJETt9IdAXg127dh3x3syZM10kb/Hixe79pk2buqitlxYuXOgiYfrN2hYtWrixERyxW7lypevvPXv2uHHi3b9mzRr7/vvvXRRZafXq1W5M/e9//3N/1/hQffV//XyaxnaoiJ3a16xZM5syZYq7VvVUfbV8qzGtsa7f1/Uidp9++qmp7hUqVLBLL73UVz9cnXijmRZDAAKxJKB5fOzYsbZhw4YjqqF/H2+55Zawg0GIXZi9GCxuki5NxBI8TZB6v0ePHu613377zR566CHr3LlzhhG7V1991fSfJu369evb66+/bg8//LCbnAcMGODkSxOuOlwyp/+PGDHCbrrpJjd5S+JUrgRvx44d9tJLL9m0adPce+nlvWTJEjdQmjdvbrVq1bJvvvnGhg8fbm+99ZYbWLfeeqsThd27d9uLL75oWmImHU0gs2Kn8VG1alXXv7/++qutWLHC9ZcndmXKlLErrrjiqPckaeozRXm1BK/I1wcffOCk8MMPP3Rj5bbbbrMDBw44wb/nnnuOEDuNyTvuuMPatGljhQsXduNk6NChds4557gvFM8884y9//77rh5ffPGFGwva86cxpXGi6PDZZ5/tvmhIEEOJndpXs2ZNd62+LOTPn9+NVUWuK1asaC+//LIbsxK7jz/+2JVz++23m/4h0phV/UgQgAAEEpHAwYMHrX///u6Lsb4EK+nf+8suu8y9ri/u4STELhxK/7fUGrx8qsiL5E2RBomdIjCK3m3ZssVNYhKitH4gPlASJV+ff/65kynJ0+OPP+4mZ8ldx44d3dKuJvWkpCRX071791qjRo1s+vTpqUuxhw8fdvcqEnPdddc5KVOd0su7Z8+eVqxYMVeOl1SuIoYTJkxw5WpgKYoXWFaYuBLmsqyInWTmzDPPdHs2NYY8QZMUhXpPY0Dyr/GmJJGXyGkfpwSqT58+LlIWmAIjdg888ICLiml7gNK4ceNcFE59nZ7YKUI8fvx49wVGkha4x+61115z9VXSvjuVpzZIKtu3b+9eV7nFixd39VMKXIrVmNcXiueee84KFSqUMGOGhkIAAhAIRWDz5s3Wq1cvF1hR0pfvJ554wsqWLRs2NMQuTFTBETtFRRo0aOCETDIU+L6iHJoMFf3S0ldwtCtY7LTs5S1NabJUNEQT5i+//GL333+/W8K6+eabXTRDshUodikpKc7uFf1Yu3atWy67++677frrr3diFypvyYCiiloq85IGg5bf6tat68pUUqRHgtq4ceMwSSXWZVkRu8ADEhIh9fkJJ5zgpCjUe8HLqhI0jQMt22tcSNIU7QsldpI+SZb6XUnL9IoAz5s3zy27h4rYadlVX1Y0DpUyOjwR3AZtH1BdvXEWKHb6AqQvFqqL9qcqsqfDSSQIQAACiUxA22M05ytpHs/sfnrELszREyx28+fPt06dOrn9aNqDFvz+unXrXARFy2TaqxaYwhU73SOB1PKrltoUCdFEGSh2kydPtldeecUtz6ocSZ0OV2QkdppItTymyI+XFHHUYRAtt3n7vvSeJltP9MLElTCXxVrsFJnVfjkJk5ZAQ4mdpEl97e2b07h95JFHnBBK7DS+9GelwKVYRdP0DVLvZ0XsFEG+5pprUstN6/CEvjxoL6qWqFUnEgQgAIFEJzDr888dggsvuCDTKBC7MJFJxnr37m2nnHKK6XEjijTIqLU/SMmTNYVNtQdJUZjZs2dnOWKnCXXq1KlODhUx6dq1qztAofK0R0mb7FXWsGHD7M8//3T7pdSZkk3VKyOxkwhqb5eW5BTi1XJckyZN3L3HHnusOwgimfvjjz+sdu3aYVJKvMtiLXbXXnuti7xp6b9fv36mZXlFehU5U6RM/5dcaU/dJ598YmPGjHF7Nu699173uB6F/L0lYUULtVyr1yRz2mOnQw8a94o+a1woH/2X3h67wKijhG3RokVuvGo7wYMPPugGiSLU+sKiSGX58uXtzTffdGUpbxIEIAABCGSdAGIXJjuJ2/r1693VimppSUuRCC8Fvq8lMR2E0PKZDiYEp8CIncRKoigxU5IQ/vDDD+7kq6IX2t+m/LRPSZNy5cqVXXRDhyw0mUsANbErKWJXqlQpJ2iazEPlrUlVmzQlAtrfpSQB0Ota6u3evbstWLDAReoksqNGjeLwRIhxkhWx074276HB4q6+lLTrz6Hek6Rp3LVr187VRH/X8rjGoMTsvvvucwculCR76kM9jkeHFfQFQ18OtH9Ty/ZKivINHDjQva6kJVe9V6RIEbvxxhudBCq6pqX+wYMHuyiukiKEikKnJ3aBbVAUWF9KdPJVeasNOpCjsaZIs8ao9nrqOo1rRaNJEIAABCCQdQKIXdbZ5cidOn2rR18E75/atm2bOyGjSVGSlpycnKVfLNBhDMlc8CNNNNEqKX9SaAKZFbvsZKm9nYrGeQcRJGXac6mIrLfPU/2tqJ4kKzjpfvV3WiegdTBH+aV1Xzht0qN/lHfwkr7qouhgYB3DyY9rIAABCEAgbQKIHSMDAhEQ8JPYRdAMboUABCAAgTghgNjFSUfSjNgQQOxiw51SIQABCECAiB1jAAJRJ4DYRR0pGUIAAhCAQAQEiNhFAI9bIYDYMQYgAAEIQMBPBBA7P/UGdcl1BBC7XNdlVBgCEIBAXBNA7OK6e2lcdhNA7LKbMPlDAAIQgEBmCCB2maHFtRAIIrBs2TL3iwnh/jgzACEAAQhAAALZRUCPP9PPi+qnQf2S9Pi0pOTk5BSen+aXLqEe6RHQ753qWXF6xhsJAhCAAAQgEEsC+oWfcuXKHfXs21jWCbGLJX3KhgAEIAABCEAAAlEkgNhFESZZQQACEIAABCAAgVgSQOxiSZ+yIQABCEAAAhCAQBQJIHZRhElWEIAABCAAAQhAIJYEELtY0qdsCEAAAhCAAAQgEEUCiF0UYZIVBCAAAQhAAAIQiCUBxC6W9CkbAhCAAAQgAAEIRJEAYhdFmGQFAQhAAAIQgAAEYkkAsYslfcqGAAQgAAEIQAACUSSA2EURJllBAAIQgAAEIACBWBJA7GJJn7IhAAEIQAACEIBAFAkgdlGESVYQgAAEIAABCEAglgQQu1jSp2wIQAACEIAABCAQRQKIXRRhklX2E9iyZYtt2rTJUlJSsr8wSoAABCAAAQikQyApKcnKlStnZcqU8Q0nxM43XUFFwiGwbNkyq1mzpuXPnz+cy7kGAhCAAAQgkG0EDhw4YCtXrrS6detmWxmZzRixyywxro8pgaVLl9rxxx8f0zpQOAQgAAEIQMAj4Ld5CbFjbOYqAn77AOUqeFQWAhCAAASiTsBv8xJiF/UuJsPsJOC3D1B2tpW8IQABCEDA/wT8Ni8hdv4fM9QwgIDfPkB0DgQgAAEIJDYBv81LiF1ij8dc13q/fYByHUAqDAEIQAACUSXgt3kJsYtq95JZdhPw2wcou9tL/hCAAAQg4G8CfpuXEDt/jxdqF0TAbx8gOggCEIAABPxB4O+//zY9V65y5co5WiG/zUsJI3azZ892ne2nZ83k6MiLk8L89gGKE6w0AwIQgECuJ9CjRw9r27at/fe//83RtvhtXvKt2A0aNMg2btxoefLkcU91btiwoV1yySVZ7qzOnTtbkyZN7Oqrr85yHundqPrWr1/fWrdunXrZkCFDrGnTpnbKKadkS5mJmKnfPkCJ2Ae0GQIQgEAsCLz99tv2zjvv2HHHHWd33nmnVa9ePbUaBw8etHPPPde+/PJL99qCBQtsypQp1qBBAyd7Xlq9erWNGjXKVqxY4V6/6qqrUt9LL//02uu3ecm3YnfxxRc7CTv55JNt+fLlNnLkSOvWrdsRnZCZgZXdYqf6rl+/3j7//HMrW7asq5rqf/vtt9uFF16YmapybToE/PYBorMgAAEIQCD7CcydO9e6dOlizz//vM2cOdN+/vlnmzhxogv+KM2bN88kZgqobN682Xr37u3krl27du7PSocPH7ZrrrnGeYUCRXfddZc999xzdvbZZ1tG+SN2UehjiVLfvn3tvPPOc7kpIrZ9+3Z76qmn3N9//PFHmzNnjh06dMiJ06mnnppaqt6Ttetnp1q1amXHHHOMBYpdcnKyvfvuu9asWTNbs2aN6SdBzjrrLHf/t99+6zr/zDPPdANn7969puu///5794sHzZs3t4IFCx7VQtW3atWq7ueu+vXrd5TY6dvErFmz7KeffrKSJUu6yF6VKlXcdZ988onVq1fPfvjhB/v999/dgKtTp469//77ruw2bdpY+fLl3bVqr17Xtw1FAtUGb2BHAbvvs0DsfN9FVBACEIBA1Al06tTJGjdubB07dnTz8umnn+5E7qSTTkp1BL3WokWL1LIfeughK1asWKrY/fLLLy44pPm8cOHC9vLLL7s5/4UXXrCM8kfsotClEiWtl2sJ9rfffjN1kORMnaLfC9V7V155pe3YscNeeuklmzZtmgvLKvQqIVSYVsImEVKkzxM72fu9997r5EqyOHToUNu9e7fLX2nw4MHuB+Z79eplr776qrP/iy66yInjW2+95QTQuzawmarvAw88YF27dnXXnXDCCUdE7PSaxO6CCy5wg0qCorpKylS3X3/91ZTHtm3bbMaMGe4bhQbxokWLbM+ePTZhwgRXnL6xKMyqa5WnxO6OO+6IAvHckQVilzv6iVpCAAIQiCYBzXkKmpxzzjkuWwU8NM8rEKI5W1ut5AHFixcPKXaaW0ePHm2TJ0921yhKN2DAAPv000/dnBoq/4za4bd5yddLsaqcomNbtmyxihUr2osvvmg1atRwjBVVkxRJeq677jq79dZbXXRO4vXwww8fYe263hM77dv7+uuvbezYsS5viVt6YvfNN984m1f67rvvXDmKrAX/CL0GxZNPPulETMuxkkKFfL2lWK++ykdRwpYtW9rHH3/sonaq24knnmh333237du3z8nsY489ZpdeeqmtWrXK/ve//7kBqD8rP+VfqFAhV5Yk9Ysvvsho3MXN+377AMUNWBoCAQhAwMcENPdL3LwInSJs2lPXvn17W7JkiT3xxBNu3g1MwRG7cePGufnfm9MVwZM3aG5NL/+MsPhtXvK12HlLsYrKjR8/3kWoFPXScWZFuyRGa9eutU2bNjkp0rKtOilwn5vXIZKnXbt2uSXc2267zV2vlJHY6fpnn33WXbt161b3reDDDz90y7uBSWKngaVIm75JKHL32muvWYcOHdxSsULH+rsnYYsXL06N7Klu+hYiQVVSXv3793fr/p7oqUwJpb5RKBqotH//frd0K+FMa3k4o8GYG9/32wcoNzKkzhCAAARyGwHN79qKpZUsJQVOrr/+eretacSIEVa6dOnUOdRrW7DYffDBB84ltDdPaf78+Xb//fe7bV3p5Z8RK7/NS7lC7AR13bp1btnRE5xXXnnFdaYES5Km482KbEmGtAetVq1aR/SF5ElRr6efftruu+++1GuGDRvmxFDLskrBS7GBYqclYJ2i0Zq8ImZpiZ3W+CWfKqdChQru24TE7sEHH3SRwYEDB7pQsfbHeUu2aYmdwsOKPgaKnU7zKJ+pU6ceUXaJEiUyGndx877fPkBxA5aGQAACEPAxAc2lmuM1B2vp9YwzznDbsHTqVatbWtELfn5dsNhpPtcePW2HUoBIe+0le4r0pZd/Rlj8Ni/5XuwUyVq5cqWLdulZdJImnWL5888/3f44hVAVkr355pudvd9www1WqVIlJ2raX6dQa6NGjdxyp/6v6ySEinJJDnW6RnL35ptvOnnUfjVtvvT22CkyOGbMGJM8aZAoaqfBFJy8iJ3ETkmDRwKovCV2OiF72WWXuW8UEkzVJ7NiV6pUKSe3+oahqKAidhs2bDjiyHdGAzC3v++3D1Bu50n9IQABCOQGAq+//rqbMydNmuQ8QHO8/q996XIABX28pLlf25+08qUgjE7F5suXz23d0vKtXtejyLTnXpE/eUOo/HXIIqPkt3nJ12Knx4colSlTxj0jTgcHFIkTRAmakiJ2Eh4tkUqatIdO12mpU0kd1rNnz9SlWh2+0LKowrc66qz7dLhCx6Jr167tvgVo/5zukcUrbKtDGNrnpyVQHbX2TqgGdra3x+60005zL3vRPU/svEMdRYsWdVHFhQsX2vDhw91pWEUcJbAaYErKK62IndqqfXUapBJMpZtuuonDExl96ngfAhCAAARyNQE9WUJzu/bZ6ZFimlslaTpYKLlTsMRL2j6lwE9geuONN9w86z3WRI9E0dYtXSvpC5V/ONAQu3AohXGNOkGPAtG6elpJ+/IKFChw1JJpqKw1MCSIgUliJwHTsqoetSLBjCRpKVbfInT8OtKkQal8EmVvncfLbx+gSPuR+yEAAQhAIHwCmos19+XNm9fdpCXUPn36uCBJuEkRPUW19HSM4BScfzh5+m1e8m3ELhyY2X2NxC5wj112l0f+GRPw2wco4xpzBQQgAAEIZBcBPW9Whxa1Zy5WyW/zEmKXzkjQSRnt4dM3ApI/CPjtA+QPKtQCAhCAAARiRcBv8xJiF6uRQLlZIuC3D1CWGsFNEIAABCAQNwT8Ni8hdnEztBKjIX77ACUGdVoJAQhAAAKhCPhtXkLsGKu5ioDfPkC5Ch6VhQAEIACBqBPw27yE2EW9i8kwOwn47QOUnW0lbwhAAAIQ8D8Bv81LiJ3/xww1DCCg5wPWrFnzqN/qBRIEIAABCEAgpwnoObf6EYW6devmdNEhy0PsfNMVVCQcAnpQtH4CTj8pQ4IABCAAAQjEkoAes1KuXLmIn3MbzTYgdtGkSV4QgAAEIAABCEAghgQQuxjCp2gIQAACEIAABCAQTQKIXTRpkhcEIAABCEAAAhCIIQHELobwKRoCEIAABCAAAQhEkwBiF02a5AUBCEAAAhCAAARiSACxiyF8ioYABCAAAQhAAALRJIDYRZMmeUEAAhCAAAQgAIEYEkDsYgifoiEAAQhAAAIQgEA0CSB20aRJXhCAAAQgAAEIQCCGBBC7GMKnaAhAAAIQgAAEIBBNAohdNGmSFwQgAAEIQAACEIghAcQuhvApGgIQgAAEIAABCESTAGIXTZrkBQEIQAACEIAABGJIALGLIXyKhgAEIAABCEAAAtEkgNhFkyZ5QQACEIAABCAAgRgSQOxiCJ+iIQABCEAAAhCAQDQJIHbRpEleEIAABCAAAQhAIIYEELsYwqdoCEAAAhCAAAQgEE0CiF00aZIXBCAAAQhAAAIQiCEBxC6G8CkaAhCAAAQgAAEIRJMAYhdNmuQFAQhAAAIQgAAEYkgAsYshfIqGAAQgAAEIQAAC0SSA2EWTJnlBAAIQgAAEIACBGBJA7GIIn6IhAAEIQAACEIBANAkgdtGkSV4QgAAEIAABCEAghgQQuxjCp2gIQAACEIAABCAQTQKIXTRpkhcEIAABCEAAAhCIIQHELobwKRoCEIAABCAAAQhEkwBiF02a5AUBCEAAAhCAAARiSACxiyF8ioYABCAAAQhAAALRJIDYRZMmeUEAAhCAAAQgAIEYEkDsYgifoiEAAQjkZgIzZ8606dOn24EDB3JzM3Jl3fPnz28tW7a0pk2bptZ/+JRke/Kt7bZ3f0qubFNurHShAknW6+qSds9lxX1TfcTON11BRSAAAQjkLgLdu3dH6mLYZZK7IUOGpNag2nVrkLoY9Ifkbs2EajEoOe0iETvfdAUVgQAEIJC7CNxzzz25q8JxWNvhw4entqpc29Vx2MLc0aRN71T3TUURO990BRWBAAQgkLsIIHax7y/ELvZ9oBogdv7oB2oBAQhAAAIREEDsIoAXpVsRuyiBjDAbxC5CgNwOAQhAAAKxJ4DYxb4PELvY9wERO3/0AbWAAAQgAIEICSB2EQKMwu2IXRQgRiELInZRgEgWEIAABCAQWwKIXWz5q3TELvZ9QMTOH31ALSAAAQhAIEICiF2EAKNwO2IXBYhRyIKIXRQgkgUEIAABCMSWAGIXW/5E7GLP36sBYuefvqAmEIAABCCQRQKIXRbBRfE2InZRhBlBVohdBPC4FQIQgAAE/EEAsYt9PyB2se8D1QCx80c/UAsIQAACEIiAQCzFrlSpUnbMMcfY0qVLbd++fRG0IvJby5QpY/3797d3333XZs+eHXmGmcjBL2JXpWxeq1+rgM35ea/t2pt4v1WL2GVi0HIpBCAAAQj4k0AsxK5GjRp25513WpEiRVKh/PHHH/b888/H7Hdry5UrZ/369bOpU6fap59+mqOdFWuxO71OAXvrofJWqmie1HbPX7LPrhiw0fYdiL7gvdevvA1+e4fN+y22Mh/cyYhdjg57CoMABCAAgewgkNNiV7p0aRswYIAdPHjQZsyYYQsXLrSGDRvaOeecY4MGDbLk5OTsaGaGeSaq2FUrl9cWjKpiBw6m2JB3d9iH8/ZYu/OK2M3Nitl/u/xjG7cdypBdZi7Ik2S2YVJ16/XSVnv5452ZuTXbr0Xssh0xBUAAAhCAQHYTyGmx6969uyli9+yzz9rvv/+eZvO0PNuiRQurUKGCbdy40aZNm2arV6921x5//PFOBD/66CO7/PLLTUKmCNuCBQuOyOuiiy6yU0891ZKSkmzevHk2d+5c937NmjWtdevWLlr466+/2gcffGApKSkun0SM2E1/tII1rFvQWj+8IWQEbdidZWzqN7vtjLoF7Ipzilrfcdvs0x/22I1Ni9rNlxRzUb0Js3bZG5/tcozz502yrlcUtxYNC1u+fEn20bd77PGJ261mpXz2yE2lrHnDwrZszQH7c/1Be/TN7bZ41QErWzyPPX17GTu+Wj77Yfl+d/3fm6MrlRl9lhC7jAjxPgQgAAEI+J5ATovdkCFDXFROEpVWqlixoj300EO2e/du27x5s1WpUsWJ1wMPPGB79+61Vq1aWfPmze3QoUO2a9cuK1SokBUoUMDGjx/vBE6pW7duVqtWLdu2bZtb2pW0Pfzww04oO3To4O7Tfypr2bJl7gHBiSp2a9+sZuu3HrLTOq8LOVZ1zd79KVaiSB5btf6gdX5us11/UTG74aKituLvg1aiSJJVKJXX+r66zUZ9mGwfP1bRTqtTwFasPWAFCyTZsRXy2QvTkm3qN3vs5e5lrVKZvLZt12Hbvuuw3T9mq/286oAtHFXZlb90zQE7qUYB997Jnf7OlqXgUA1F7Hz/zxUVhAAEIACBjAjkpNjlyZPHRep++eUXGz16dMiq1a5dOzWa16BBAydjY8eOdVE5T+wUsZs+fbqLyCnP3377zUaNGmWNGjWyG2+80b766iubOHGiK6NYsWK2c+dOGzx4sJNDSaVkURE/RfZ69OhhJUqUSLiIXd48Zuvfru6ib9c+vildsSuYP8ku6b3eFqzYb1q+/XFUFXv/693Waehmd9/sZypZ5TJ5re4ta61O1fxO3Lxl3F9erOKuOanT33Zyjfz2xdOVjliKndyvvP33xELW4M6/bd2WQ3bCMfntyyGVrNvoLfb6zH+jgDmRELucoEwZEIAABCCQrQRiIXZLliyxESNGpNuu+vXru313WpbVsqn243344YepYtenT5/U/XiPP/647d+/34lZx44dTfd26dLFDh8+nFpGwYIF7emnn7YNGzaYDmooFS9e3E466SQnmevXr09Ysft84V5r98jGdMVuyeoDdlHP9e6aW5sXsyc7lrYZ3++xTTv+Zdy4XkGrXTmflW/375K5JK9Ty2LWqlERq1k5nx08mGJVrl2TptitGFfV8uVJsinf7E6tw3UXFLVJc3ZZ5+FbsnX8B2aO2OUYagqCAAQgAIHsIpCTYqc2ZLQUq0egaClWy6sSwL/++suaNWvm9tHpxKoXsQsUu0cffdQdxpDY3XfffVatWjXr2rXrEcjKli3rHmeiJd4dO3Yc8d6ECRNSl4cT7VSsllk3bDtkDe5Mfyl24R/7reWDGxy3nleVtJ5XlXB75AJPzR44ZNakxz/W9/qS1qVNCVuz6ZB99uMeu6B+IatUOm9IsVMdkszcMm9gGj9rl42YmnOHaRC77PpXhnwhAAEIQCDHCOS02Em4tNQ6cuRIt3zqJQmd9sTdcMMN1rhxY+vbt6/7u6J1Tz75ZNhi17ZtW2vSpIk7YasoXGAaNmyYW+INfLyI936i7rH7cFAFO7NeQbtq0Eab9dPeVFx6pp13eEHiFSh2/6lZwD5/qqL1eWWbjZl+pHjp1KuWd7/6ZZ9d3v9fEZw6sIKdUaeAE7uTjs3vlm29/Xh6X8uuKq/2TWtzbNynVRBiF1P8FA4BCEAAAtEgkNNiJ4EbOHCgWyadM2eOLV682E477TQ766yzbNKkSe7Uqk69vvDCC7Z161Zr3769O0ARbsSuatWq1qtXL9uzZ4+NGzfO7alr06aNjRkzxuVVr149l9fMmTNdZE+Sqf16qtcjjzxis2bNssmTJ0cDbdh5xPI5dhKqn0ZXsYOHUtzjRz75Ya9dflZha9+0mPV8aauNnbHTgsVODVv+alUrVjjJ7hq+xS3JXnluUdu557C9/9VuJ3bL1x6wKwdutHbnFbU+15a0w4f/XVIxCmUAAAVgSURBVIotkD/J/n6zmi36Y79d/8QmF/Fre25Re6xDKZu7eJ91GbnF8uUzu6t1cev+wtawGUbjQsQuGhTJAwIQgAAEYkogp8VOja1evbp17tzZHWpQ0kEG/fqEDj8octa7d2/Lnz+/e+/PP/9010vGtMeuZcuW7lEogUuxis7plKx30laiqAMU+WQIZu4ErB5+vHbtWrdEK3nUoQslvfbEE0+4Pw8dOtTdo8MU2rOXUymWYqc26tcm3u5b3j1y5N/+MPti0V675tGNduiwpSl2FUvntVmDK5r+793z2syd1uOFrTa6S1lre+6/D5/efyDFlq89aHWq5nNipzRlQAU7+6SC7s8vfbTTer+81frfWMruuLS45fs3O3cq9oL719tfG45cns3OPkHsspMueUMAAhCAQI4QiIXYeQ3TMmv58uXdPjrJnZckXZI5HXRQxC2rSc/B0967LVuO3ICfN29edyhj3bp1R+SvAxaK4ulwRWB9slp+uPfFWuy8euqXJ2pVzmc//b7fDof5gxPePT+vPGAHDv3/m8qXymvlSuSx3/46kCYGPQKlVLE8bok3MGmZd9P2Q+50bE4nxC6niVMeBCAAAQhEnUAsxS7qjcmlGfpF7HIpvqhVG7GLGkoyggAEIACBWBFA7GJF/v+Xi9jFvg9UA8TOH/1ALSAAAQhAIAICiF0E8KJ0K2IXJZARZoPYRQiQ2yEAAQhAIPYEELvY9wFiF/s+IGLnjz6gFhCAAAQgECEBxC5CgFG4HbGLAsQoZEHELgoQyQICEIAABGJLALGLLX+VjtjFvg+I2PmjD6gFBCAAAQhESACxixBgFG5H7KIAMQpZELGLAkSygAAEIACB2BJA7GLLn4hd7Pl7NUDs/NMX1AQCEIAABLJIALHLIrgo3kbELoowI8gKsYsAHrdCAAIQgIA/CCB2se8HxC72faAaIHb+6AdqAQEIQAACERDo3r27HTiQ9s8+RZAtt4ZJQL+JO2TIkNSrq123xvbuD/P3vMIsg8syJlCoQJKtmVAt4wtz6IqdO3daUnJycor3g8o5VC7FQAACEIBALicwc+ZMmz59OnIXg36U1LVs2dKaNm2aWvrwKcn25Fvbkbsc7A9JXa+rS9o9lxXPwVLTLwqx801XUBEIQAACEIAABCAQGQHELjJ+3A0BCEAAAhCAAAR8QwCx801XUBEIQAACEIAABCAQGQHELjJ+3A0BCEAAAhCAAAR8QwCx801XUBEIQAACEIAABCAQGQHELjJ+3A0BCEAAAhCAAAR8QwCx801XUBEIQAACEIAABCAQGQHELjJ+3A0BCEAAAhCAAAR8QwCx801XUBEIQAACEIAABCAQGQHELjJ+3A0BCEAAAhCAAAR8QwCx801XUBEIQAACEIAABCAQGQHELjJ+3A0BCEAAAhCAAAR8QwCx801XUBEIQAACEIAABCAQGQHELjJ+3A0BCEAAAhCAAAR8QwCx801XUBEIQAACEIAABCAQGQHELjJ+3A0BCEAAAhCAAAR8QwCx801XUBEIQAACEIAABCAQGQHELjJ+3A0BCEAAAhCAAAR8QwCx801XUBEIQAACEIAABCAQGQHELjJ+3A0BCEAAAhCAAAR8QwCx801XUBEIQAACEIAABCAQGQHELjJ+3A0BCEAAAhCAAAR8QwCx801XUBEIQAACEIAABCAQGQEndjt37kwpWrRoZDlxNwQgAAEIQAACEIBATAns2rXLktasWZNSuXJly5MnT0wrQ+EQgAAEIAABCEAAAlkjcPjwYVu3bp0lzZo1K6Vx48ZWqFAh5C5rLLkLAhCAAAQgAAEIxIyApG7v3r02f/58+3/85qpZVibFRwAAAABJRU5ErkJggg==;imageBorder=default;" vertex="1" parent="1">
          <mxGeometry x="40" y="400" width="630" height="280" as="geometry" />
        </mxCell>
        <mxCell id="3rU5uwpI67zHj25wgRQa-2" value="" style="shape=image;verticalLabelPosition=bottom;labelBackgroundColor=default;verticalAlign=top;aspect=fixed;imageAspect=0;image=data:image/png,iVBORw0KGgoAAAANSUhEUgAAAnYAAAEYCAYAAADRQrtOAAAAAXNSR0IArs4c6QAAIABJREFUeF7tnQWYlUX7/++lpaSkUSwwMV+xExNsQEERsUUxMDFRUEwQsVtUBAMLsTARsV4DxcBAEaQRWJBm/9dnfu/s/9nDyeXZPc+e853r4mJ3zzwTn5ln5jv3PTOn4OWXXy5q0qSJtW7d2urUqWNFRUWmIAIiIAIiIAIiIAIiEH0CBQUFVlhYaH/88YfNnj3bCiZOnFjUrl07q1GjhlWqVCn6NVAJRUAEREAEREAEREAEigmsXbvWli9fbpMmTbKCmTNnFjVu3FiiTh1EBERABERABERABCooAcTdnDlzrKCwsLCodu3aFbQaKrYIiIAIiIAIiIAIiAAElixZImGnriACIiACIiACIiACuUBAwi4XWlF1EAEREAEREAEREAFZ7NQHREAEREAEREAERCB3CMhilzttqZqIgAiIgAiIgAjkOQEJuzzvAKq+CIiACIiACIhA7hCQsMudtlRNREAEREAEREAE8pyAhF2edwBVXwREQAREQAREIHcISNjlTluqJiIgAiIgAiIgAnlOQMIuzzuAqi8CIiACIiACIpA7BCTscqctVRMREAEREAEREIE8JyBhl+cdQNUXAREQAREQARHIHQISdrnTlqqJCIiACIiACIhAnhOQsMvzDqDqi4AIiIAIiIAI5A4BCbvcaUvVRAREQAREQAREIM8JSNjleQdQ9UVABERABERABHKHgIRd7rSlaiICIiACIiACIpDnBCTs8rwDqPoiIAIiIAIiIAK5Q0DCLnfaUjURAREQAREQARHIcwISdnneAVR9ERABERABERCB3CEgYZc7bamaiIAIiIAIiIAI5DkBCbs87wCqvgiIgAiIgAiIQO4QkLDLnbZUTURABERABERABPKcgIRdnncAVV8EREAEREAERCB3CEjY5U5bqiYiIAIiIAIiIAJ5TkDCLs87gKovAiIgAiIgAiKQOwQk7HKnLVUTERABERABERCBPCcgYZfnHUDVFwEREAEREAERyB0CEna505aqiQiIgAiIgAiIQJ4TkLDL8w6g6ouACIiACIiACOQOAQm73GlL1UQEREAEREAERCDPCUjY5XkHUPVFQAREQAREQARyh4CEXe60pWoiAiIgAiIgAiKQ5wQk7PK8A6j6IiACIiACIiACuUNAwi532lI1EQEREAEREAERyHMCEnZ53gFUfREQAREQAREQgdwhIGGXO22pmoiACIiACIiACOQ5AQm7PO8Aqr4IiIAIiIAIiEDuEMgZYVdUVGTvvvuuzZ0717p161bmLTRp0iRr3ry5NWrUqMzzylYG//zzj1133XX2559/2llnnWWdOnUqUZT33nvPJk+ebB07drTNNtvMfXbffffZ1ltvbbvvvrttsMEGpSr6yJEj7bnnnrMtt9zSTjvtNDvnnHPs8ssvt8MPP7xU6ekhERABERABEcgXAhVe2K1YscJuueUWW7hwob399tv2ww8/2E8//WRt27YtszZcu3atEy9TpkyxQw891F588UWrVatW0vxWr15tVapUyahM5FOpUqWMngkzMgL5888/t7322sueeuop++WXX2yLLbYozmK33XazL774wo488kh79dVXDbG7ww47uM8nTpzoxF1pws0332xXX321tWvXzok7+BJ69Ohh999/f0rWpclTz4iACIiACIhALhCo0MJuzZo1NmPGDOvVq5dhPRo0aJD169fPunbtaqNGjSqz9sGi5K2CWJMQG6lCkyZNbNmyZbbhhhumiuo+X7RokW211Vb25ptvWoMGDdJ6Jp1IL730kiGGsaYVFBQkfAQhevzxx9sVV1zhrHYI19dee63YajdhwgTbe++93fOwP+CAA+ziiy+2u+66y7bZZhtnyUsWsAbOmjXLtV/r1q1LRL399tvtoYcecn9DpPP7o48+6n7/+OOPbeeddy61NTAdRoojAiIgAiIgAhWVQIUQdoiI4447zvbZZx+76KKLnKAYOHCg3XbbbY474gerUu/evW3//fe3Aw880Bo2bFgmbTJ//nwnXObMmePS/89//mMtW7Z0PyOGfvvtNzvssMPs+uuvt7p16xaXgZ8LCwszLtOAAQPsmmuuyfi5RA94K1umCTZu3Nh+/PFHJzIR1HvssYez1hGwLCLQWrVqtU6yderUKfG38ePHO6sebYdoLE0gDS8qS/O8nhEBERABERCBXCVQIYTd8OHDrWfPnq4Nxo0bZwcddJA9+OCDbu8VYciQIW7/Vbru13///de+//57Q+RkEhA0uB3feOONlI8hQCmXD/fee69Vr17d/UsWcO8iWgkIyP/+979Wo0aNpM9g1apXr541bdo0ZblKI+wQYH369LEWLVq49B955BE788wz3c98hiscN+nTTz+dMn/qg8VtfYQdQn/PPfdMmZciiIAIiIAIiEC+EagQwu6CCy6wYcOGubbBhYeIwa2JexMrGNak6dOnW9WqVeO2H1a2Tz75xImyMWPGuP8Js2fPds8S+vfvbwsWLLBjjz3WWf1i3ZRYpc477zx74IEHivN4+OGHS+SHK/j33393f/v222/dHrFkAXG6cuVKd/CAAwiLFy92Vkn2qhG8CAqmwSGRzz77zFkk2X+G5Qqhc8kll9gdd9zhov79999OaHXp0sWOOeaYEoIPSyN7/ZLt90PAevdvmzZt7Oeffy4uQnAfHX/89NNPXZv4gw3nn3++3XPPPS7+lVde6dziwYD4rlmzZrGwgz9WzmDgEAzlJuCuxQ2M4GV/H3sO+T2ZGznfXmLVVwREQAREQAQ8gQoh7Lbddlt3KCJ279ZNN91U7KbkFCVCJjYEhdx3333nhByCkIBYRIgQvCWLzxETQeGAhQ8375NPPuniIvyw2gUtaRzeqF+/vvscQYewSxVwXSJIET9Dhw61o446qti9yZ4yToTGBl9Ov4/w0ksvtTvvvNNwec6bN8+qVavmDpFwqINAmU855ZRURSnx+VdffWW77LKL+1tQMCJ8caNSZh84VAEbBDZuaQ5NeNF4ww03lGgT9vX5/XRBi90777zj3Ni4WNmrh2jFqkfAGrl8+XLbcccdXR3ZY5dKMGdUWUUWAREQAREQgRwiEHlh99dff9nGG2+8jsjgDwiwZs2auc/YY8ekHxs4hICFj4DlDwHVuXNnd9LSCzAsZf5QQ1DI8Axi8MQTT3TCkoDgwKLk0/T5Ya276qqr3K9Y4rgeJFXYfPPNnYUPkYZr2OfBnjr21sULN954o9u/R2BfG2LOn0T1hxsQVFggCVjoNtpoo1RFKfF53759i93Iwf1sHLpAXHurJA89//zzrqxTp061b775xlkfE1nTgm2UzBXrRTzp43pHnHMoA/ZffvmlrHUZtaYii4AIiIAI5BOByAs79qZ5qxqWnQ4dOpRonxNOOMHdeeZF2HbbbbdO+2FR4uQqFh/EINY2xB0WJk50jh49ungPH67F9u3bF6eBCxf3LAIJi+Djjz++znUbuD45werdwtz7lmpfHBn4AxXUD7clZUJEXnjhhQn7YFDoIo4uu+wyt7dw5syZTvyceuqptskmmzirGu7RsWPHZtSfqYvfS4dIwwVauXLl4jTYR4ewfeKJJ9zf4IW7FgsllkxCUNj5gyX8fd9997VnnnnGxWEf4bXXXut+xv2MMPSWQCyD1AGexLv11lvdz8FTuRlVSpFFQAREQAREIE8IRF7YYY3ye87YVxcrmBBpRxxxhGsuxBGWs9iAOMNahLD78MMPnRBCwLBni/1kuDdxPyJCpk2bto5FCKsYViMOcMRao3geAYXoJHDQg/1tqQL70vw+Nq7zwKWabuDU7VtvveVctbhs2QOHEIIN98kdffTRLincpCeffHK6ybrTrYhLrkQhxLM84jLFNepPu8YK4aCwIx2/Vy62ENxTx311iGvuykPU+VO1dEquk0HI+SBrXdrNqIgiIAIiIAJ5TCDSwg433MEHH+ya5/TTT3enMWMDhw/49gdvLcNyFXupL4IFAYi1L/ZUKochzj33XJdspvvREDlnnHFG8d47BNXLL7+cVncK7v3L1BKF0OUAAa7cYFi6dKmzHCKSsLbh0kx1Ctc/z6EMLIX+kApuatye8Q6k4JL1AjuZsEPwdu/evUQZTzrpJCeOvRWVvYBcV8NeOi59JqxatcoJdO7P8wHB6g+9pAVYkURABERABEQgDwlEWtixkf6DDz5wzcJJ0ETXk5x99tnFF9pmchUGgsKf5uRbEng23W96wOJGvuwxI7D37P333y8+ZZusLwWthFi+OJ1b2q/f8vlwwIO9eq+//rr7Exa9Qw45JK0uTV3YV+fdq6kOKaQr7OJljhjGtcuVNbjBEexYBik3wpi82fOItTF46ANxzteVbb/99s6lqyACIiACIiACIrAugcgKO/a98c0HhEQHI3x1XnnllWKXX+zhh0SNzl4x7zJFTGB5QpylE8iPwxHBS4qxCKZzKTLChvv3/DcpIKg41bo+ASslljEvgrGGsTcxVcClioURS52vC8+kEseZCDvvFvZloV0Rz5xMJk+uefFilDi4ZhGlCG329xGwPnIlirfyyXqXqmX1uQiIgAiIQL4SiKSwY/M8bjkvNhAs++23X8I2Cp58ZZ8cBwwSBU6fIqb8njiuN8FyxJUqyQJWLb6mjEMYfs8f8fmWC8RR7DcsxEsL1yh34XkBhruT60G41600AWGGQORr1Py3WvC1XgjFZPe8cdKX08EcOgl+GwYCijruuuuuSYuTrrBLtMcOEc03VxCwcnLNC+WAIW7xF154ocTJW+KxN5JLkmGPi9hfx1IabnpGBERABERABHKVQCSFHZvp+WYDJnFOovpTr8kawd/vhmuV+LVr1y4Rna/DIk2sUT4g6rgihYt+UwVOm/p77IjLs/4bF5Jd9uvTRRgGrVCIOoQPYqo0gWtPuJA4KMwQeBxISBVw/fLNDcFrSziZS33Yu5cqrK+wC7JkXyD7+wh8By97Fn1AgGNZDVoT+YxnSiuGU9VNn4uACIiACIhARSYQSWHngSLCED7+rrpkoBGBWOv8SdPYuLhAOUXK3i0CV23gtvX316VqRPbFITS47oR74nCnZrovjkuM2TfGAQeEWTpXoiQqF9/T6vcc4r7kZG0yq2ZsOog6DiNwXQxiqnnz5qkQFH++vsLO35OHmPSHNUjcC865c+faiBEjrFOnTu7SYty1XsDSbrBTEAEREAEREAERWJdApIVd2A2GuOPrrrjSI3i/Wib5cEghKtYiXJq4ndmLmO6hj0zqmiguIhdrIQcaEKr+3jsfn/v1EH9w9iddY9N67LHHnBvbfxOF/5yrW/j2jE033bT4Ea654YQ0Fy3jJk7HQhpGPZWGCIiACIiACFQ0Ankl7Cpa46i8IiACIiACIiACIpAJAQm7TGgprgiIgAiIgAiIgAhEmICEXYQbR0UTAREQAREQAREQgUwISNhlQktxRUAEREAEREAERCDCBCTsItw4KpoIiIAIiIAIiIAIZEJAwi4TWoorAiIgAiIgAiIgAhEmIGEX4cZR0URABERABERABEQgEwISdpnQUlwREAEREAEREAERiDABCbsIN46KJgIiIAIiIAIiIAKZEJCwy4SW4oqACIiACIiACIhAhAlI2EW4cVQ0ERABERABERABEciEgIRdJrQUVwREQAREQAREQAQiTEDCLsKNo6KJgAiIgAiIgAiIQCYEJOwyoaW4IiACIiACIiACIhBhAhJ2EW4cFU0EREAEREAEREAEMiEgYZcJLcUVAREQAREQAREQgQgTkLCLcOOoaCIgAiIgAiIgAiKQCQEJu0xoKa4IiIAIiIAIiIAIRJiAhF2EG0dFEwEREAEREAEREIFMCEjYZUJLcUVABERABERABEQgwgQk7CLcOCqaCIiACIiACIiACGRCQMIuE1qKKwIiIAIiIAIiIAIRJiBhF+HGUdFEQAREQAREQAREIBMCEnaZ0FJcERABERABERABEYgwAQm7CDeOiiYCIiACIiACIiACmRCQsMuEluKKgAiIgAiIgAiIQIQJSNhFuHFUNBEQAREQAREQARHIhICEXSa0FFcEREAEREAEREAEIkxAwi7CjaOiiYAIiIAIiIAIiEAmBCTsMqGluCIgAiIgAiIgAiIQYQISdhFuHBVNBERABERABERABDIhIGGXCS3FFQEREAEREAEREIEIE5Cwi3DjqGgiIAIiIAIiIAIikAmBCins5s+fb3///bdNmzbNOnbsmEl948b9+uuvbdmyZbbnnnuud1phJ/D999/bww8/bNtuu62dddZZJZL/5Zdf7J9//rHddtstabarV6+28847z2666SarWrWqDRgwwG677TarVKlSyuL+8ccf1r9/fzvssMPszz//tLPPPtvq1auX8LmffvrJli9fbjvuuGPKtFNFKCoqsoKCglTRij+HRY0aNWyDDTYo8czs2bNtww03dJ+VR6D+/EvGqazKsXbtWrv//vuta9euttFGG5VVNmml+8knn1izZs1s0003jRt/xowZdt9999kFF1xgn3/+uf33v/+1jTfe2D3Dz40aNbJq1arZNttsY7vvvrtLY/LkyUa/P+aYY4xxYM6cOSXSrly5srVp06bE37799ltXhrp166ZV7vWNRL+lXC+99JL16NHDatWqtV5Jkt7IkSPt0EMPtQYNGqxXWmE/TNnuvPNOoy0vuugi22STTYqz+PLLL+3222+3xx9/3GrWrJky64ULF9r48ePtyCOPTBr3xhtvtA4dOrjx+tZbb7W99trL9t57b/fMvHnz3Hteu3btuGkcd9xx9tBDD7m+lSj89ttvrrz0w0zCihUr7I033nB9M93w8ccfO2atWrVK9xHFE4GUBCqcsGPCHDFihK1cudKYOAYPHpz0JU1FgIHptNNOc4PDGWecETf6W2+9ZVOnTk0ohEijadOmdvTRR6fKbp3Pefb333+36tWrx332+uuvt5tvvtluueUWN4gxcfMMg9eQIUOc8Onevbub5BYsWFA8wAUTY7B5+eWX7cEHH7Rnn33WfvjhB2NwDIZEAuqvv/6yiy++2E0sTz31lL3//vv25JNPJhRcTz/9tBPdl19+edz6MCkzmVMH2hBBTZtut912dvXVV5d4hvZF1DIxEGKFXuzv1157re2www7WuXPnEumceuqpdv7559uuu+5a/HdELrwQgQiH//znP7blllsWfz5q1CgnNgh16tRxnx1//PEpxSGD+5VXXun6ChOeD/Sfjz76yE306QhqBD1tGhsXZm3btrWWLVvG5TtmzBh74oknjHbwQha+QVH777//OqaUJR2xk0lZCgsLnRjjH+nzblHeuXPnWpUqVVw7BwP9cvjw4Y4vbcEChj7Gou300093/9Pn6YOEDz74wD777DO74oorXB3ffPNNa9KkSXGSv/76q73yyisl8ujUqZN7f2LzzvhlTeMBFlGLFy92CymE2KJFi+zCCy9M48nEURA7d9xxh3v/ErXXo48+auSd6D1es2aNWwDusssuGZeFtuM9jddvedd5V3r16uXGY7/4ZDFF+xG8QJo5c6ZjcfDBBxeXgXItXbrUCTHqSd9FDLJImzVrlu28887rCGPec9LYd9993bvWuHFjt4ihX1Cek08+2RBwP/74oxv3gmHChAm2xRZblOgzcDnooIOKozF2bb/99q7/pgpMoIzdLJjp+926dTPeQfoADDbbbDNjsZEo0K/pn8H8U+Wpz0UgFYHIC7vnn3/evaDXXXedffHFFzZo0CD38j/yyCPuJeKFZsIobSB9hAqTd3AiPOSQQ9xgRfjwww+NCSPRhMzgsdNOOznLVqaBSfeEE05I+PIzkRMYyBgUGTQQOwyIPlB2BvzWrVtbv379ShSBAblLly522WWXOfGCJSdeuOqqq6xdu3Z24oknpqwC4glh9MADD7g2oSwIGiZgBmkCEzsBZohvLDEEVuVTpkxxK2ImciZnrHyIVh/HF+C5555zgppJnMAASLqkuWrVKve34CROe11yySVuAqdMfkBF2CHaGzZs6AQRvBB/MOX3b775xiZOnGgw8FZbrJq8HMRD3NLGTFCUM1HAWoA4hQWijvx8oM5MSCwASDuVoELswDa2z2FNoA1POeWUdYpB/tQ1XqDP+AmWNmDBwMTJomHzzTdP2uaZlIV+gSD2/ZM2gDfWy/3228/1RR+8ZYT3F64scNq3b+/ew3feeceJdDgh3KgXFjCYMHljsSEwofL++MCEPnr06BL1YcE1dOhQ936URaCPMC4hTs855xw78MADXbkZm5o3b56x5SdYRvqgfye9BZYFDe8aYg9RQ2DhhWCPJ+wQHG+//bYTXUcddVTGCFgEvPbaa3Gf8+MTFlEsdvSl6dOnOw7777+/nXTSSe45LHqMjwjQoBDHI8C4FhzPsHAi9LCqMW556xr9g7ZF3NOveN9ff/11QzD27NnT9RdE26RJk1x/o38xvgf7HCxI379XpAXDPn36FNePd5hF4LHHHpuSFfOQZxPs85QPL8Fdd93l/ifAB6FPPMaveOMl9eZ9UxCB9SEQeWHHJMiLhwuQAY1VFIM3/2IDq3vEAasyXu5zzz3XRcEVw4sWu2LH3YPl6swzz3Sixoe+ffs60YiFJl5gsMD0z0SJ9RBxwQvOBOZDpmWJl49fAd57770lXBzEReAx+TFhBQODBYOtF6m4XLEUvfDCC06IMamz0mWgx4oRDD6/oFgiLQZGnmcwZGBCsPAzgzKfI9LID8YIIIQQAouyMIAxsMWuWnkOUUF6AwcOjOuuYuJiMvYWOOIyeTEwMqEjDIMCCeHHBMfgyDOI5mDAjYWgYfLhc1yAsPATIyKTelIX+h3tyWBMwGqLpTHWGsRnlIcJhwUCwoTJKJ7bl/IjvLFGILSC7iImT/q0nwTi9QdcW5TrmWeeWcfVRF3p71i8Lr300uLHsdYyUdBPg5M+bUPfeffdd52FZOutty5+BvcQbJNZd5KVhYR4r3gXY4UmCw3YUBb6IH2S9w/XJfkifHH5I2KIQ1y4DRs2zL3XxOFzJl0sIukKO/LJ1LWWzsCKqKD8vt/Ak/cVKxZlCwasOHCnjRljsAxRJsY13hu2OwS3EWCBY1HDIE2/8WKE95n+xjgUzxpEfD5D7JA2CxZCcFGSaVkSsbj77rudNZZ+SXj11VedeOOdoG6MMYgs+uRWW23lxvF4gfGSdw2rZKzrmneeMYaFC9tm6LeM5Qh6RBVuzCOOOML1F+pLmfbYYw/Hkj7DggIm8QKLBN6doLCDOeNCJtt8qC8eAMQmY3O8wDYC+rP/R9sxHrHARATTN0infv366XQ9xRGBhAQiL+yYgBkA/T4yXhpefibw4ETlrRVMrkweuEIYXHmJWCm2aNHCDcA+MAAzAPBC+9U/n2EdZGImj0QvGKIP4YKlh4El1hqQaVkStQ4TH4Mk9QgGBlIGEFayTB4MCohQJnGsXIcffriz6FA2BAMiioGV+iJAKTdWNOrhA4Mk3PgbbgEGSOIhChAcPMvvCBtESWyAF5MbAxMDOSIpUWAAZPBkMkc0IgBwfcTyxk1Bufz+qmTvMRMVoj8ovLxVr3fv3q6dg+I9VtgxuPM3hDCuWSYqrIOIJSwFtAOTS3By5BmsuViQEcWERIO6LzvWvHHjxpWYNLBY0j70o0TWM7ji2qKv4moKBgQOkzf8mMwRu+zboQ2xVB5wwAHrPOOfp8/wuReiDAiIMSwtiSwWycpCurjkEO3eQsZWAfa9vfjiizZ27Fgn5GlvAosA6o+VC8GLVYk+h2BC2NMOCHJvlfeuWEQA4oW8gnvqcOPGc8XSRsn2VZV2jqC9ec/Y5kCADfWFIe9hMFAfxBmiDuGLIOE9hgH9jPp4YccC7IYbbnCCBFEbXCgw9vDOJHLx+vGBd5B2wKV/zz33lBCNmZQlERv6F3VlrPF15X1gIY6Ioz8jQumXLGJ4t+JtOYEZFj7aH9FLe7Lo+uqrr9zWEdoey5cPQVcsCwzGtOAiDosg7wMCEXFMGjAg0H9Y/HjrJ+8U73WwXIw7iLrgvJCIAW2PKOWdQ4DyO3sEaT8s4rRV7LYJxgAsvJSdwDsbtCqWti/qORHwBCIt7PyEx4TgXzxeClxRCIPYww68zOzn4UVBxDFYsLIjPkLGT5pM1IhF9mcE910BhQmDFzFo9YjtLggdxCKDBD/H2++UblmSDZqUH/dpcO8fDcZ+MQZKVr+s+vx+Nu8+QMAgelnd8jllwWLDgA+D9957z/EIul35GTcqEzoiCDHIZMXEBUsmKsQdA1XsYQ0mYYQ0kycCD7GQSOCwxw7rA+XfZ5993EDO3z799FO75pprXH19IE9c8OxTSRX8IQ/KEBvgRZ8Iph0r7HgGEYk4xPKHoGDPDuLOu5voE4hoOHJAAZcjVj3YMcmxWGASziQgypjUmRiDC4/YNEiXSZNJKtYSxASPSGBCYhFAW9MvmeAQpFj4Yg+UxCsjQhjRwUSL1SnRfq1kZaEt4cSeVSYrGNEn4Ih4wxXoXe5YnZhwcaHRflhF4YGQQ/wTqAPtwtYIPzEzkTMeYJXheYQ/blrcgezJol/5QLsw0SJyyuIwC3VFKPhtG+RLXghM2AcDrkH40kYskoiH4OJ/9jEGLej0P0QJ70pQ1H333Xfub4899lixGza2LbFo8j6SP/2FcSTWgpxJWRL1Z9oWgeqt5LHxglsDEHW+D/J3xijakPZBfHoPC+5sb9Wjn7BgxXrm+7xfgNGfcLsyRsQeoEE8e0s8ZUJsMTZiQcQtD5dkIp/xj3x511MFyv3zzz+7RTGLS/Z8svDyrmQOkcWyZ3xk0Y6lnIMW9He5X1OR1ueZEIi0sGMwwBLizfy+YogSXuZYVyIDDeZuBlkmKQYDrEjsw/Ab8IMDfuzERVwmRQbNRJMAq0omfwbMoOs1FnomZYnXYN6lgVAJWrKwSCLYWHEzyLOnicGOST3RBlyEineIWF6xAAAgAElEQVQVkRfCLp4rFqaICywerD6x3vEzvBEVWD1xR8YG9o8hkhEQiHAG+njCzm8CR2TFutKZCDmtBlcfyJ9JnYmTgZJ6JjphySKAwyRM4qy2aVtceEz8WNmwLOCS8SFW2CFmGPQR7EwCQVcs+SLyGIiZiJkgcO0x8HsRTX0RJpkIO0QQYhY3KC6ZREIKYeSttsG9cr4uwf2E/I10/WED6plo312wHWFFGZh0aeNEewBTlQWRiVDj0IR/nxDGQWuUz5eFEe3OJOs31COUeK/ZW8nCgn7Oe8yChHakD7GQwuKBRQj3JcIO/l7QBOuFOGLyTCQ+MhksY+PyvlDP2K0SiFKsWPEssFgraQ/23hFggxBA8AUXqvFOhDMWssijzkEhGVsuf8Ap3iInGDfdssRjxPiAdRURHetepU5YZhHgBMR50CKGhYsxBcsc22R413if6Mcs5NiPxzsfu58VN7wf8xmLsNzxPtDGfnGNOzO4sPTtz/iPlY6xMGixYyHAgiMYEMK0iT9pm04f8QfBWBgjJJOd5qcv+hPDjFcIP94VBREIi0BkhZ1f7SFcmCiCgVOdWKkQYck2ofuNuaSR6kQcLyMDERM7ByESBcQLE1I8d2SyRsmkLN6i5i1EsekyiLA3hMmA8lIWBlnv3oqNH0/YMbAGV5IMoggYJkwsCFjhsF4iKPidwYiJABdL7FUeTEIMslghCKymYzew83cmZSyIpIH1jzZm8MTi5SfDoHWWycvvr2KwxiWTSKTAF17s/0MQ4MZC4DCpsKImeDcrP8cKOyyG1M/3qdg9dv4ZRH2808+ZCDsmG/iwSmdSwe0U7wAQixNvHUNUIo4Q9fwt2X4xb43xm7njvUPBPuJPl+NCg0G8KzXSLQvxqAuWC0Q6/Yw2S2TB5b3Dgu5dafQRxDsDE5ZRLH+41GDEnlIsI2yXwGLPIgQhgLUSd6bfnB+sm7fwsEUh9soNhAKsWGiwEOPn4PaEVIMsdUOAxhPzWLaxNGM5SxR4b+iTuOxYlCQLuPYQ64gT3tFkJy3J2x/kSFUH/3kmZaFtGH99nwiOI1jDWJQivBBZiNXYgz78zoLGu9DxwmBl4+8s+Eif32mXYKDteXdg5k/FYo1H+PtFG58jaH1/83OFX7AxFjLeeFcsfYetF8FAv2LsifUIMSYytgQXYSwmsFqy4KcceD1gT10SzSPExSqIUOcdZUHuF2K+HFhw6VcIRMpTmtPM6ba94uUegcgKO15EJn4sJLGBQYiX07vN4jUL1ixeQAbqZPsXEBSsrBElqQQgkz+DKq6QdPZ9+XKlWxYGDsQl1iEmhNg9OsF6IjARLnDCBYio8yfk0hF2CAvq6wMWMVbZTHasfnExIJrZg+JdvX7ywUIR3PPi0/AnP1m1Jjt9h6hDnCKQcMMwmOOCow2C7c3gRwdltY1QQPQxkGPBZMJG3OJ6R+T4hQDt7U80455jsOUZJg8sLFg8WCUj7HCBsmhALJEvlj5/XUNQ2NEuiG2ECvHina5MJeyY5BABWD7hTKBcidw9WDJgTF+nnZgo+Zn2xjqJVS146pb0mNRY+SPEsTjwjlAu8oi914s6IWaYhGGP64nJKJ5gKE1ZEBfk6w+0JBJMiHHqg0BjQmbCpb8xQWLBRWyx59VPvn6PHVYirGUINi+KKT/7KWPfTfoXY0Fwgcg+R/iSDv2Bvkcc+k4yMeb7Om1J/6SfxJvAWYggchDj8aw39F/GHTwMvFexbRkUXNSZSZ7yc2Iz2S0AvCscxEjlbowVv+mUhf5F/+X9p52wpsZ6LehTvJ+IG0QQ7tdUwo6yINapG+MSooaQaDEe3GPHOwQP73pFKOHV8MKOBSttyzjASXXe/1RsSB9RHrSK+rENax+f+zZFZDJOYuXzbn/GNdof4YonI573h7iMKbR9vDEFoUd/pNykkYknIPdkimqUKYFICjuOyzO4MnAE7xYLVo7VMpNQ7AZiJgIGe05DMXEnOtnExIFZn0mdvTpMEsmsILx8iItMrgxItyzUi8GCsmCtwBKXyOUYXNExELJSxcLCgObvPYvdH5iuK5ZJjpUwEyP7RbjihcmVvyMEuBKESYxJKXhPHa4TLHsMVIjRVBMjkyquF8qOkKQtGPxY+Qb30zFoYg3AWoMwYnBDXCPSGPAQK7BisGWgxOWGZYsBlQmeeAy6CGCsmriPsDJgMQyemoU1lqHgnkO/xw7e9DNEMwuJ4N6dYH9EINE/4rmqiQcvrAcINIQEnBPdXUhacKfdsHYFLSJMrlhSmVgZ+H2AP/84VUrdk1mosb4i/piUETJMRIkuvi1NWSgT6SMw2IBO+RHyCGsEmnfDUw6EKO3FQgLhQht4yxptzuZ76swCw1sCEZrszWRyDboBsfz5Q0LBfa+IFvomQpP3BOGA1YR+Fdy+gLhgEqV8sdai2IGVsYk0goujYBx/QjL2NC7vDv0flzZ9nj6e6CQ0ZfaeAfoBbZXIxcc7xHjA2In4T+WhoKyZlIXFKVY2AosAFm/JrIbEQwAicGKvUKLdvSvWM/PXPrFA9XuhGYNYvDE2+oUJ7znl4I5A3kWsWVj3/L5Kv7hB2CGI/YExFlOIbNqf95j9eX6PH2UIejsQr4wjjIOMH4zj/ON9ZPwPXkFEHizGeZ8pK9fx0KcZa1i00m6xF2YzzlMW+nwirwxtSH7euk8/URCBdAlEUth560OylSmDfrx75XhhcL3xwgfvS4oHhBcYIZHOrd/sC2FQTSeuzyuTspA+g04qQResB+4n9mowicCCwQ/hEOtCQMRg4fNCAncXAxIDZnBgRSQz4PrrBpgQOXBAepSNScoPRkHBzaBM+gy0iYR4LH+sNEwWtDFtgOUtdpMxEzUDeap71nza7C2ivHCgf5A+k29wT026L0am8WgLBG4iSy4uZSbCRDfiB/Ojzoj0RBu8mfB8e/vnYIVwSseSjLiFSyIL7/qWxT+PAKOdcTkhxJkkaQs/0dGfELn0WSw9THhYwhDkMCD4e/AQsUygTNhYUpg8WWzFWkMQEqQVFL2kQ39nXCA9TgwjBOJdScMVSLBNth3D149JN9MxineVBQwLoGRCjTxoI+qC+Eznrk4sUwiWdPoY6WdSFuKzqIJLogVJ7DuDZYz9zbEeE8YKLFWxYwX9BCGPC573F4FP+7I4oP7+uivGIn/vJcIIq6Af8/w4RT9hOwaCy3+GOKN/8K6SF3kQWAR40errgPhHpNEXWfCz8Iv3PvrbA+i7/kBYqmt1GCfY40zfT/SO43pnrzdlpL8nsuhmOk4pfn4QiKywyw/8qqUIiEC6BBBSTKSIxNhv0wim4Q9OpZuu4omACIhALhGQsMul1lRdREAEREAEREAE8pqAhF1eN78qLwIiIAIiIAIikEsEJOxyqTVVFxEQAREQAREQgbwmIGGX182vyouACIiACIiACOQSAQm7XGpN1UUEREAEREAERCCvCUjY5XXzq/IiIAIiIAIiIAK5REDCLpdaU3URAREQAREQARHIawISdnnd/Kq8CIiACIiACIhALhGQsMul1lRdREAEREAEREAE8pqAhF1eN78qLwIiIAIiIAIikEsEJOxyqTVVFxEQAREQAREQgbwmIGGX182vyouACIiACIiACOQSAQm7XGpN1UUEREAEREAERCCvCUjY5XXzq/IiIAIiIAIiIAK5REDCLpdaMw/qsmDBAps3b54VFRXlQW1VRREQAREQgSgTKCgosEaNGlmDBg0iU0wJu8g0hQqSDoEpU6ZYixYtrEqVKulEVxwREAEREAERKDMCq1evthkzZlibNm3KLI9ME5awy5SY4meVwM8//2ytW7fOahmUuQiIgAiIgAh4An/88Ye1bds2MkAk7CLTFCpIOgQk7NKhpDgiIAIiIALlRUDCrrxIK5+cJCBhl5PNqkqJgAiIQIUlIGFXYZtOBY8CAQm7KLSCyiACIiACIiBXrPqACIRAQMIuBIhKQgREQAREIDQCstiFhlIJ5SMBCbt8bHXVWQREQASiS0DCLrpto5JVAAISdhWgkVREERABEcgjAhJ2edTYqmr4BCTswmeqFEVABERABEpPQMKu9OxCe3LFihW2bNkyq1evXmhpppvQ9OnT7a233rJTTz3VKleunO5jivc/AmEKuxdffNEOPPBAq1+/fih8x48fb02bNrUtt9wylPRI5J9//rF3333XOnfuXKo0f/nlF5s1a5bts88+pXpeD4mACIiACCQnIGGXZg8ZOHCgzZ0712rVqmXbbbed/ec//ykxYfrPK1Wq5L7Og88POeSQlKkj6i699FLjuaFDhxbHnzp1qn344Yd2yimnuM9She+//97mz5+/jjhbvny5bbXVVtayZcu4SfTv39+WLl1qt99+u/t87dq1xs3V1apVK/eypKpjFD8PU9jRZ55++unQLpa88MILbc8997QTTjghNHTU9+STT7YvvviiVGk+99xzNmHChBJ9vVQJ6SEREAEREIG4BCTs0uwYBx98sB1//PHWqlUr+/rrr40J6oEHHnATJ4HPmUARfVgl7rvvPrv44outa9euCXPgO0YRdVjriN+wYcPiuHxV1UUXXeS+1eCWW26xunXrJi3pk08+aRMnTlxHBH788cd2ySWXWM+ePdd5/vPPP7czzjhjnb9vsskm9uqrrxrfOUcoj7Kk2QyRiyZhl1mTSNhlxkuxRUAERCBTAhJ2aRJDuF177bW27777uidGjhxpN998s7NcVK9e3Qm74OdY8BYtWlRsCQtms2bNGhs9erQNGDDAicUrrrjCatSosU5JFi9ebH379rXZs2fbs88+a7Vr1y6O89hjjzl3WDLB9+WXX1qfPn3snXfeKfEsiUybNs0JUcrQoUOH4nQpN4Lu6quvLlGesixLmk0QyWiZCjssckcccYRzf/M1K0ceeaRzlxKw2CHwWRhgRQ1+Nm7cOGfJwzLL57TZNttsU8zk22+/dZYwvrP28MMPdwuQWIsdVuD33nvPLSRw+frnccfTV4455hiX3l9//eUWL0cddZT7nQUI5eV/Fhr0kUQWO+p36KGH2iuvvOLiUk7Ki/sWV//KlSvdQsFbp+mblL1x48bWqVOnSH1xdSQ7nAolAiKQswQ++ugje/zxx23OnDkl6sj42KtXr2L9kQqAhF0qQv/7PFa44UJlIkbgMUHyOZYx/vbjjz/aNddcY7179y5hscMtSsMNGzbM/vzzT5fypEmTkpaAfJjUO3bsWBzvp59+cum+9NJLtvnmm8d9HvHYvXt3N1n26NGjRBwmbayJp512mm222Wa2ww47WJ06ddz+qf3228+JyG233XaddMuiLGnij2y0TIUd/aNFixZOfP3www/266+/2uuvv14s7Bo0aGDHHXfcOp8h0mh3Fha4ybF8vfbaa04Ujhkzxm644QY766yzbNWqVUbbI+iDwo4+ec4559ixxx5rG2ywgT3yyCM2ZMgQ23vvvY29eHfeeae9/PLLrhwffPCB66Ps+UPQM6Dgyt9rr73shRdeMARiImFH/TbddFMXd//997eqVas6azH9tUmTJvboo4/ajjvu6ITdm2++6fI5++yzjYEIMUr5FERABEQgHwmwDYrtUSyMWQQTGO+PPvpo93cW7ukECbt0KP3P1Rq0yPEYlhfEG+IJYYcFBuvdggUL3CT28MMPO6sFe/PuvfdeZ6XDzYn7k71sWEFw52YSsN5haUO0MZEnCnfffbeb+MeOHesmVx+YqLES4uY97LDDnGXu008/teuvv979//fff7vJNp2wvmVJJ4+oxymNsIPv7rvv7voFfcgLNERRos8QaVjs6G8E2pD2Zx8nAuqqq65ylrJgCAq7fv36OasYgp6A657+N2LEiKTCjj77zDPPuAUM/Si4x2748OHFfYV9d+RHHRCV7A0lkC+LBspHCLpiWZmyfYC+Gs9iHfW2V/lEQAREIGwC7JXHi4cHhsDim+1Ywa1aqfKUsEtF6H+fx1rssIrstNNOzmy6yy67lHDFIp6YDEeNGuVcX1hR7r//fjcBYx3D1YmVhX+ZCDusOxdccIHLDwtNokMVTLh33HGHK/nbb79d7OrzVaXswROwWARx+RKw0qRzijKssqSJP7LRSiPsggckEEK019Zbb+1EUaLPYt2qCLTddtvNnS7FyoVIw9qXSNgh+hBZ9EHCd9995yy2iPlPPvkkocUOtyuLlcsuu8w9l+rwRGwdsDRTVu/uDwo7FkDXXXedKwuLFSx7HE5SEAEREIF8JsD2GG6qIDzxxBMJDz8mYiRhl2bviRV2n332mZ155pnG4QT2ucV+PnPmTGdBQbxtvPHG6+SSibDDPIvlhEkWSwgTZbyrSRCQWD9wl2GRYRLlZC3CoVmzZglrGhR2WBSJn+jKjbIuS5rNEZlo2RZ2WIvZL0db4wJNJOwQTVj5/L45+i37KxGECDsWCvxMCLpi6U+sIPm8NMIOy/KJJ55YnG+8wxO4iTmVjYuaMimIgAiIQL4TeO/99x2CAw84IGMUEnZpIkO4XXnlldauXTv75ptvnKUBRc3+IIIXdphN2YOEOEJUYbGLZ1lLJexw1ZIOkyxuMAL79tgDFy+wVw9zLdY49k41b97cuXsp51dffWVPPfXUOqZcLItM3OzxwqKI1QjXLZvo/YlY8iqPsqTZDJGLlm1h161bN2d5w/WPO522mjx5srP+sQDgf8QVe+qw3j700ENuzwaWXyyzmPy9SxhrIe5a/oaYw3rLoQf6PdZnRD/p8C/ZHrug1RHBRt/kUEjwUA577NhvSp/baKON3L5O8iJtBREQAREQgdITkLBLkx3CjT1lBK44waWFJcKH4Oe4xHC54j7jcEK8wOZI9lYlmshwjWJJ23nnnd3pV9LHJZYoLfb/nXvuuW6SD8bDwnbeeec5d6y3urApk83yTKakjThFGCQKZVmWNPFHNlpphB372ry7G+GF6OauQX5O9BkijX7XpUsXx4Lf27dv7/ogwoxrcziMQUDs0Wa4+TmswAKDPjFo0CC3KZeAle/GG28s7itYg/msZs2a7rANIhDrWlFRkd12223OCkzAQsiiJJmwC9aBfafs5+TkK2lTh3///dcdnuBkN5ZlTnsTDxGIe1lBBERABESg9AQk7ErPbr2e5EqJGTNmuE308QLWNCx9wStOEmWIlQYLC5aPdNPC/YZVj8MdqUJZlyVV/lH+PFNhV5Z1oZ2wxvmDCIgyrihh0623GnMym/6CyIoNPE9/i2dh5ooU0ov3XDp14uof0o7dQuD7brCM6aSnOCIgAiIgAvEJSNipZ4jAehCIkrBbj2roUREQAREQgRwhIGGXIw2pamSHgIRddrgrVxEQAREQAVns1AdEIHQCEnahI1WCIiACIiAC60FAFrv1gKdHRUDCTn1ABERABEQgSgQk7KLUGipLhSMgYVfhmkwFFgEREIGcJiBhl9PNq8qVNQEJu7ImrPRFQAREQAQyISBhlwktxRWBGAJTpkxx35iQ7pczC6AIiIAIiIAIlBUB7q7lKrU2bdqUVRYZp8s9pQWFhYVF6dzflnHqekAEQibA951yVxx3vCmIgAiIgAiIQDYJ8A0/jRo1Wue7w7NZJgm7bNJX3iIgAiIgAiIgAiIQIgEJuxBhKikREAEREAEREAERyCYBCbts0lfeIiACIiACIiACIhAiAQm7EGEqKREQAREQAREQARHIJgEJu2zSV94iIAIiIAIiIAIiECIBCbsQYSopERABERABERABEcgmAQm7bNJX3iIgAiIgAiIgAiIQIgEJuxBhKikREAEREAEREAERyCYBCbts0lfeIiACIiACIiACIhAiAQm7EGEqKREQAREQAREQARHIJgEJu2zSV94iIAIiIAIiIAIiECIBCbsQYSopERABERABERABEcgmAQm7bNJX3iIgAiIgAiIgAiIQIgEJuxBhKqmyJ7BgwQKbN2+eFRUVlX1mykEEREAEREAEkhAoKCiwRo0aWYMGDSLDScIuMk2hgqRDYMqUKbbpppta1apV04muOCIgAiIgAiJQZgRWrVplU6dOtTZt2pRZHpkmLGGXKTHFzyqBn3/+2dq2bZvVMihzERABERABEfAEojYvSdipb1YoAlF7gSoUPBVWBERABEQgdAJRm5ck7EJvYiVYlgSi9gKVZV2VtgiIgAiIQPQJRG1ekrCLfp9RCQMEovYCqXFEQAREQATym0DU5iUJu/zujxWu9lF7gSocQBVYBERABEQgVAJRm5ck7EJtXiVW1gSi9gKVdX2VvgiIgAiIQLQJRG1ekrCLdn9R6WIIRO0FUgOJgAiIgAhEg8Dff/9t3CvXrFmzci1Q1OalCins5s+fbzTgtGnTrGPHjuvdgF9//bUtW7bM9txzz/VOK+wEvv/+e7vvvvtshx12sLPPPrs4+bVr19r5559v++67r5144olhZxvZ9KL2AkUWlAomAiIgAnlG4JJLLrHOnTvbHnvsUa41j9q8VOGE3YoVK+zpp5+2lStX2rvvvmv333+/bbTRRqVuRATSySefbAceeKCdccYZcdN588033QWElSpVivs534LACuHoo4/OuBw8+/vvv1v16tXjPnvllVfanXfeaQMHDnT/V6tWzcV7+OGHbdiwYbb11ltbjRo1bO7cuTZ9+nRDpFauXDnjclSUB6L2AlUUbiqnCIiACFR0As8995y98MILtsUWW9i5555rrVq1Kq7S6tWrbZ999rHx48e7v3311Vf2yiuv2E477eTEng9//fWX0w2//vqr+3vXrl2LP0uWfjJ2UZuXIi/snn/+eZs8ebL179/fvvjiC7vsssvs1VdftYceeshOOukka9y48XoJGdIfMGCAbbLJJlanTh3XdoWFhXbsscfaaaed5n7/8MMP7Zdffkko7BBZHTp0cOlkGhCq+++/f0Jhx1doESjLRRddZAjRRx991Im64cOHW5MmTdznN9xwg/taEwRgLoeovUC5zFp1EwEREIGoEPj444/twgsvtHvuucfGjRtn3333nY0cObJ4Xv70008NYTZ48GDDq4dRBHHXpUsX9zOB+RMP13bbbWeHHHKInXfeeXb33XfbXnvtZanSl7ALsScgWBAv55xzjmuU448/3nr06GHHHXfcOrngmt14441twoQJ9u2331rv3r1dnEmTJrnGpzGDgUanYa+++mpr165d8Uenn366y4+84gXEIB2hefPmNmLECGdBHDVqVLEw5JlMyxIvH1Q37uExY8a4emGVu+aaa2zixIku+o033mjHHHOMffPNN2718sYbb1i9evVCpB+9pCTsotcmKpEIiIAIlDWBM88809q3b+88a8uXL7dddtnFCbltt93WZY1Rg78dfvjhxUVhvqxdu3axsMNIhIXuyy+/tA022MAZST7//HN78MEHLVX6EnYhtvDBBx9sN910k+22224uVUQOe874P+ga5Yvhcae+//77br8cKp2fcVNee+21zmR71llnFZcMNy6NjpUNa5sPP/30k2v4jz76KKFIOvLII+366693bs/HHnvMnn32WWvdunVxGpmWJRGut99+2+666y4bO3asi0K9XnrpJVe+P//80xCgW221lROxuGmjuEcwxK7gkpKwC5uo0hMBERCB6BNACzDv7r333q6weNUwaGB5Y0vTfvvtZ6+//noJA0ussHvrrbfsgQcecPMoASsdxqN33nnHkqWfik7U5qVIu2KBhUDDBev3oHnXZTwhc/nll9s222xjp556qvXs2dOZbVHzuDqxqm2++eaufdjTxkGEQYMG2a677lqizTiQgHWMtBIF0sN8i3DEqteyZct1oqZblkR50FF79erlLIOsJOKFW265xVkML7jgAjvooINclKVLl7oVSlBopuqUFenzqL1AFYmdyioCIiACFZUAcxrCzVvomBfZU3fKKacYBhnmwyeeeKJE9WKF3ZNPPmmffPKJs9ARsOBxAPOPP/5wc2ai9FMxi9q8FGlhd+utt9rixYudxS4YEHWzZs2y22+/vcTfMalyipT9aKtWrbKqVau6jZajR492AigYcOvGHoYgLv77l19+OaG1buHChe4kKp0DAZUoZFKWeGmw6ZOOGs+9ipv3tttuc1ZFgrdm8jP54rpmBZKLIWovUC4yVp1EQAREIGoEmHeZ83HHEtgrxz57PGj33nuv1a9f37p3755U2L322mv2zDPPuL15hM8++8zt22cuTZZ+KhZRm5ciK+y8O5MDAjvuuGMJrj/++KOdcMIJzoxat27dhMxR4d26dXMnSGP318U+RIPffPPNzs3LKZpEgU6BixTln0nIpCzvvfeeOyiBVRDroA9YGhG77BmkXo888oj7ORg46EFd7rjjjkyKV2HiRu0FqjDgVFAREAERqMAEsMwdddRR7iQrHi28bcyBzNedOnVy83zs/XWxFju2T7FHjz123Hf34osvuvkSS1+y9FNhi9q8FFlhx764OXPmFJtMg2BpVMynHI6gQeMFTsz06dPHxQkeZ46Ny6lTTtGw5y6VAOTUzcUXX+z2vflVQ6oG5/N0yzJz5kx32pfOhkXusMMOK5E8G0Y5DcSeQK40YaOohF06LaA4IiACIiACFZnAU0895Q4pcngR4weHJfgfLxpuWfbd+7BmzRp32JLbNNhnz6nYKlWquH3quG/5O/MoW72w/HHlWaL0OWSRKkjYpSJkZjNmzHCqHNDcVxMvYJGiobBsBcNvv/3mzKx0APbQJbrAmL1oWOhQ6wg/VHzTpk0Tlg7rGasDDluke19dumUhU07mUhYOQFxxxRW26aabJiWFqxlhhxk5GHDdEmJdz2lgrxBRovYCVQhoKqQIiIAIVHAC3FPHvnn2wTVs2NAZWBBpzHWIO38LBtUcOnSoDRkypESN2WfPwQt/rQlXoqAPiIuWSJR+OtiiNi9F1mKH4k520W68PXI0AMef2UjJ4Qh/x1uihsFtudlmm5W45AhZLuIAABJwSURBVDBRXPa1YboNXoiYqsEzKQvpU+dUgs7nSSfceeedrV+/fiWKgUWPwDHuXAxRe4FykbHqJAIiIAJRJbBo0SK3v93rA1yoV111lbshIt3AXIv42XDDDdd5JDb9dNKM2rwUWWGXDkzFyT8CUXuB8q8FVGMREAERiA4Btjqxhx7DS7ZC1OYlCbts9QTlWyoCUXuBSlUJPSQCIiACIpAzBKI2L0nY5UzXyo+KRO0Fyg/qqqUIiIAIiEAiAlGblyTs1FcrFIGovUAVCp4KKwIiIAIiEDqBqM1LEnahN7ESLEsCUXuByrKuSlsEREAERCD6BKI2L0nYRb/PqIQBAlF7gdQ4IiACIiAC+U0gavOShF1+98cKV/spU6a4K2H4ujgFERABERABEcgmAe6UnTp1qrVp0yabxSiRt4RdZJpCBUmHAN8UwtfN8e0jCiIgAiIgAiKQTQJcs9KoUSNr0KBBNoshYRcZ+iqICIiACIiACIiACIRIQBa7EGEqKREQAREQAREQARHIJgEJu2zSV94iIAIiIAIiIAIiECIBCbsQYSopERABERABERABEcgmAQm7bNJX3iIgAiIgAiIgAiIQIgEJuxBhKikREAEREAEREAERyCYBCbts0lfeIiACIiACIiACIhAiAQm7EGEqKREQAREQAREQARHIJgEJu2zSV94iIAIiIAIiIAIiECIBCbsQYSopERABERABERABEcgmAQm7bNJX3iIgAiIgAiIgAiIQIgEJuxBhKikREAEREAEREAERyCYBCbts0lfeIiACIiACIiACIhAiAQm7EGEqKREQAREQAREQARHIJgEJu2zSV94iIAIiIAIiIAIiECIBCbsQYSopERABERABERABEcgmAQm7bNJX3iIgAiIgAiIgAiIQIgEJuxBhKikREAEREAEREAERyCYBCbts0lfeIiACIiACIiACIhAiAQm7EGEqKREQAREQAREQARHIJgEJu2zSV94iIAIiIAIiIAIiECIBCbsQYSopERABERABERABEcgmAQm7bNJX3iIgAiIgAiIgAiIQIgEJuxBhKikREAEREAEREAERyCYBCbts0lfeIiACIiACIiACIhAiAQm7EGEqKREQAREQAREQARHIJgEJu2zSV94iIAIiIAIiIAIiECIBCbsQYSopERABERABERABEcgmAQm7bNJX3iIgAiIgAiIgAiIQIgEJuxBhKikREAEREAEREAERyCYBCbts0lfeIiACIiACIiACIhAiAQm7EGEqKREQARGo6ATGjRtnY8eOtVWrVlX0qqj8MQSqVq1qRxxxhHXo0KHEJ8NeKbRbRy2y5SuLxCxDAjWqFdgVJ2xofY6uk+GTZRddwq7s2CplERABEahwBPr27StRV+FaLf0CI+4GDx5c4oGW3adL1KWPcJ2YiLvpI1quRwrhPiphFy5PpSYCIiACFZpAnz59KnT5VfjUBIYNG1YiUqPOf6V+SDGSEpj3QqvIEJKwi0xTqCAiIAIikH0CEnbZb4OyLoGEXfiEJezCZ6oURUAEREAEQiAgYRcCxIgnIWEXfgNJ2IXPVCmKgAiIgAiEQEDCLgSIEU9Cwi78BpKwC5+pUhQBERABEQiBgIRdCBAjnoSEXfgNJGEXPlOlKAIiIAIiEAIBCbsQIEY8CQm78BtIwi58pkpRBERABEQgBAISdiFAjHgSEnbhN5CEXfhMlaIIiIAIiEAIBCTsQoAY8SQk7MJvIAm78JkqRREQAREQgRAISNiFADHiSUjYhd9AEnbhM1WKIiACIiACIRCQsAsBYsSTiIqwa79VdWvbqqoNf2eJVataYMfvXdNe/PhfW7kq/a82a9uyql3VbUO7/JF/7Li9atr9YwqzQl/CLivYlakIiIAIiEAqAtkUdltssYWdeeaZdtddd9nMmTNTFbVUn1eqVMnWrl1bqmd79uxphYWFNnr06LSf33bbbW3p0qX2xx9/WJ06dWzXXXe1zz//3P0tWyEqwu6Le5pZlcpmO5070y7rUtcu77qhbXnqDFu4NP32OXL3DezxSxtZn3sX2JBzGtjCJWus84C59v0f5ftdxxJ22erNylcEREAERCApgWwKu9q1a9ugQYPsxRdftA8++MCVk+82bdCggc2ePXu9W66goMBuvvlmW7x4sROPy5YtyyjNm266yRYsWGB33nln2s8Fn0HknXPOOXbrrbfa9OnT004j7IhREHZY614f2NjOumu+jf74X5s5qqWtWGl25aP/rFPdF8f/a6vWFNmxe9W0BnUq2ZyFa4rj7L51dTu7Yx27+IEFVrlSgd3Uq579OXu1dRs0z/1fXkHCrrxIKx8REAEREIGMCGRL2FWrVs022WQTu+CCC6yoqMjmzp1r9erVM/6+cOFCu/baa+PWA7G0wQYb2JdffplWPQ899FDr2LGjrVq1yoYMGZKRwBo4cKDNmzfPiUIfKOOOO+5oLVq0sJEjR9qaNf9fdBDnxhtvdGKQZ9q2bWvnn3++IfZmzZqVVnnLIlIUhN3c51tZQYEZ31N7Tqc6NvDUesVVXV0SoW1zxgxbULjWvHgqCnhqScOH4N8feWOJ9XtsXZFYFjxJU8KurMgqXREQAREQgfUiUN7C7uqrr7aNNtrIKleuXKLcWLRwx06bNs1+/fXXhALs8ssvdwLwqquuWqfeidyubdq0sd69exsWvMGDB9uff/5Z/CzPUCasaitXriyR5m233ebK+cMPPzghhyUxWG4sebhcgwERh7Xx7rvvlrD7H5hbTq9vZxxe26bOWm2H9ptt3z/U3D7/eaVNmLzc+naua81OiG/N/PvZlvbwG0vs+uELixHXrVnJfh/ewo6/ca59OGm5NW9Y2WYtWGNr09+mt17vi39Ywi4UjEpEBERABEQgbALlLey6dOliVapUsd9//91++eUXZ03bZZdd7KKLLkqravvtt5917tzZuVg322wz23LLLa1Vq1ZOdLGX7pJLLombTtOmTe2kk04yrFdBAdetWzfbc889bejQofbbb78ZPBo3bmy4ib2Iw4WLWJs6daoTcuy9Iy7iLTbgWibOgw8+KGFnZicdWMuG9m7gML3/7XLbrGkVa9agsm1/1t926qG1rd+JG9pNIxYVY/xzzmrnqiUgnpYuL7Kxny+zzZpVsb/nr7Fed8wzrH8Dnllkj75ZaL892dJeGL/Uzr9nQVr9J6xIEnZhkVQ6IiACIiACoRIob2EXW/jddtvNevTo4Vyv7IVr3bq1E2v169d3rk4fDjroINtqq62c5YxDCQTcoLhtcZfi9pw0aZI9/PDDafNp3769nXzyyU5gepGGK5VyIM723ntvZ0HEyudDv379rEmTJs5i+O+//ydAggEr3tdff21PP/20hJ2ZXXnihtZln5pmBWa/z1xtM+atsTGf/Wvjvlpul3Su64Rd4bL/f3iCOAdd/n/7K714Yu/cJk2quL/hyp32TEt7/bNltmZtkXXdr5a1yfAARtodJElECbswKCoNERABERCB0AlkQ9hxQIL9dVjccJMiyoKBPXdLliwp4W5lL17Dhg2di7Zdu3ZuzxpuT8J1113nxB6ia/Xq9DbQs0/utNNOc/n0799/HTcs6Q4YMMDmz59fvMeuV69etvPOO9vjjz9uX3311TptgasXy9+bb75pY8eOjSvssDZi/Rs/fnzobZkowWzvsdugeoF9PKSpE3ZdBswtLibC7tIuiV2xs0a1srteWmy3jFxk/XvUs56H1LJNe8yw8YObWo1qBU7svfDRUus9rHytdUHRWW6NmCQj+nBBYWFhEWZmBREQAREQgfwmUN7C7pZbbrFatWo56Ag43Jw1a9Z0blROx2I9S3X1CQJr++23t759+zrXKyKR/XDpnjzt2rWr7bPPPi7vG264IeFVJLHC7rjjjnPC8dVXX43baXDp4trFwofbNvbwxAEHHGCk8cUXX9jw4cPLreNlW9hR0f/e1yyusMNid9tzi4tZrFpdZENG/9/vuFyveWKhPfh6oQ0+u7513L2mte01w/18ysG1jUMXm/ec7ty15R1ksStv4spPBERABEQgLQLlLewOPvhgW7Fihf300082Z84cV0bcsBxiQGSlE4LXiCCeOFGLGzZV2GGHHQxRV7duXfvrr7+cJS72wEQwDU7FYrHjNG06gX1/WO2wHBK8sEPMHnLIIc7ax97CdNNLJ8904kRd2AVdsctWFNk2Z/xtW7aoahOHNnUWPvbmvdy/sbVqXNl26T3T7jm/gZ24fy37cspKO+yq2c6dS5xPf1yRDo5Q4kjYhYJRiYiACIiACIRNoLyFXbzyY4FDdKV7gII02BM3YcIEGzVqVEIkuHy3224757rFwle9enVncRszZoy9++67KVHiosWaiGBjLx8BUdiyZUurUaNGCXfs6aef7q5Bef755+2jjz5ycdkTeN5557m9gBzEmDhxoo0YMSJlvmFHiLKwS+SKPe+oOnbDKfXs3lcLjZ8Jz76/1KpULrAu+9Z0v+Pa3a3PTPvkrqb2w7RVdsbg+WGjS5iehF25oVZGIiACIiACmRCIgrDbd999jdOyWMjSvZj4mmuucXfesb8uUUBoIbgIHIj48MMPnaCLvXsu0fPcgdepU6e4H//zzz/FefsDIN9++6098sgjxfG9ZZFvncD1yrUp2QgVUdhNfri5Q7Vz75nuRCxfHvLAhQ1s+02r2UNjC+2XGavt9jPr20ffLbc9tqnuTtbe80r5fb2YhF02erLyFAEREAERSEkgCsKuUaNG1r17d/fVXenuk2Ov2v7772+XXnppUncqVjPcn8lcrskgYaHbfPPNnbUPQci+PE7h4kYOflUZIm7y5MnrJLX11lvbjz/+mLIdyjJCVITdb3+vtq4D///hCb5WLN49dhy2+O3JFnb14wvt8beWODQtG1W2CXc1s0EjF9kD//t+2NvOrG89OtRye+y4PgU3bnkFCbvyIq18REAEREAEMiIQBWGXUYH/F5kDgFjs+JYHheQEoiDsuFh4xaoi98+HalULrH7tSjb7n5ivnjCzhnUq2fzC9L9Dtrz7gIRdeRNXfiIgAiIgAmkRqKjCLq3KKZIjEAVhl2tNIWGXay2q+oiACIhAjhCQsMuRhkxSDQm78NtYwi58pkpRBERABEQgBAISdiFAjHgSEnbhN5CEXfhMlaIIiIAIiEAIBCTsQoAY8SQk7MJvIAm78JkqRREQAREQgRAISNiFADHiSUjYhd9AEnbhM1WKIiACIiACIRCQsAsBYsSTkLALv4Ek7MJnqhRFQAREQARCICBhFwLEiCchYRd+A0nYhc9UKYqACIiACIRAQMIuBIgRT0LCLvwGkrALn6lSFAEREAERCIGAhF0IECOehIRd+A0kYRc+U6UoAiIgAiIQAoG+ffvaqlWrQkhJSUSRQNWqVW3w4MElitay+3RbvrL8vn4rilzWp0w1qhXY9BEt1yeJUJ9dsmSJFRQWFhbxdSwKIiACIiAC+U1g3LhxNnbsWIm7HOwGiLojjjjCOnToUKJ2w14ptFtHLZK4K0WbI+quOGFD63N0nVI8XTaPSNiVDVelKgIiIAIiIAIiIALlTkDCrtyRK0MREAEREAEREAERKBsCEnZlw1WpioAIiIAIiIAIiEC5E5CwK3fkylAEREAEREAEREAEyoaAhF3ZcFWqIiACIiACIiACIlDuBCTsyh25MhQBERABERABERCBsiEgYVc2XJWqCIiACIiACIiACJQ7AQm7ckeuDEVABERABERABESgbAhI2JUNV6UqAiIgAiIgAiIgAuVOQMKu3JErQxEQAREQAREQAREoGwISdmXDVamKgAiIgAiIgAiIQLkTkLArd+TKUAREQAREQAREQATKhoCEXdlwVaoiIAIiIAIiIAIiUO4EJOzKHbkyFAEREAEREAEREIGyISBhVzZclaoIiIAIiIAIiIAIlDsBCbtyR64MRUAEREAEREAERKBsCEjYlQ1XpSoCIiACIiACIiAC5U5Awq7ckStDERABERABERABESgbAhJ2ZcNVqYqACIiACIiACIhAuROQsCt35MpQBERABERABERABMqGgIRd2XBVqiIgAiIgAiIgAiJQ7gQk7ModuTIUAREQAREQAREQgbIhIGFXNlyVqgiIgAiIgAiIgAiUOwEn7JYsWVJUq1atcs9cGYqACIiACIiACIiACIRHYOnSpVYwffr0ombNmlmlSpXCS1kpiYAIiIAIiIAIiIAIlBuBtWvX2syZM63gvffeK2rfvr3VqFFD4q7c8CsjERABERABERABEQiHAKJu+fLl9tlnn9n/A77Jh7O5PmXWAAAAAElFTkSuQmCC;imageBorder=default;" vertex="1" parent="1">
          <mxGeometry x="40" y="760" width="630" height="280" as="geometry" />
        </mxCell>
        <mxCell id="3rU5uwpI67zHj25wgRQa-3" value="" style="shape=image;verticalLabelPosition=bottom;labelBackgroundColor=default;verticalAlign=top;aspect=fixed;imageAspect=0;image=data:image/png,iVBORw0KGgoAAAANSUhEUgAAAnYAAAEYCAYAAADRQrtOAAAAAXNSR0IArs4c6QAAIABJREFUeF7tnQeUFFXahr8hZxAQJEpQUBcRA4IBMSAuGBAEzLooirKLAXHFiBFFXRTDGjFgBARxERQFVEAFBXRVFDChgmQER4Kk+c97/605NTU9M91D9XTR/XzncICuuum5t/q+9X333s6aMGFCTt26da1JkyZWtWpVy8nJMQwCEIAABCAAAQhAIPoEsrKyLDs725YsWWIrV660rI8//jindevWVqFCBStVqlT0W0ANIQABCEAAAhCAAARyCezcudO2bNliX3zxhWUtX748p06dOog6BggEIAABCEAAAhDYTQlI3K1atcqysrOzc6pUqbKbNoNqQwACEIAABCAAAQiIwB9//IGwYyhAAAIQgAAEIACBdCCAsEuHXqQNEIAABCAAAQhAAI8dYwACEIAABCAAAQikDwE8dunTl7QEAhCAAAQgAIEMJ4Cwy/ABQPMhAAEIQAACEEgfAgi79OlLWgIBCEAAAhCAQIYTQNhl+ACg+RCAAAQgAAEIpA8BhF369CUtgQAEIAABCEAgwwkg7DJ8ANB8CEAAAhCAAATShwDCLn36kpZAAAIQgAAEIJDhBBB2GT4AaD4EIAABCEAAAulDAGGXPn1JSyAAAQhAAAIQyHACCLsMHwA0HwIQgAAEIACB9CGAsEufvqQlEIAABCAAAQhkOAGEXYYPAJoPAQhAAAIQgED6EEDYpU9f0hIIQAACEIAABDKcAMIuwwcAzYcABCAAAQhAIH0IIOzSpy9pCQQgAAEIQAACGU4AYZfhA4DmQwACEIAABCCQPgQQdunTl7QEAhCAAAQgAIEMJ4Cwy/ABQPMhAAEIQAACEEgfAgi79OlLWgIBCEAAAhCAQIYTQNhl+ACg+RCAAAQgAAEIpA8BhF369CUtgQAEIAABCEAgwwkg7DJ8ANB8CEAAAhCAAATShwDCLn36kpZAAAIQgAAEIJDhBBB2GT4AaD4EIAABCEAAAulDAGGXPn1JSyAAAQhAAAIQyHACCLsMHwA0HwIQgAAEIACB9CGAsEufvqQlEIAABCAAAQhkOAGEXYYPAJoPAQhAAAIQgED6EEDYpU9f0hIIQAACEIAABDKcAMIuwwcAzYcABCAAAQhAIH0IIOzSpy9pCQQgAAEIQAACGU4AYZfhA4DmQwACEIAABCCQPgQQdunTl7QEAhCAAAQgAIEMJ4Cwy/ABQPMhAAEIQAACEEgfArulsFu9erUtWbLEKlWqZPvuu68NHz7ccnJy7KyzzrKmTZsm1Dvjx4+3hQsX2t57723nnntuQmm9m7du3WoLFixw/z3ggAPslVdeseXLl9uRRx5pHTt2TCjPefPm2ZQpU6x06dJ2zTXXWJkyZRJKz80QgAAEIAABCGQugcgKu6efftok4I477jhr3769jRs3zhYvXmxt2rRxouniiy+2OnXquM9q1KjhenDq1Kl2wgkn5Pbmhx9+aBJuc+bMsZo1a9pRRx1lffr0cek8O/vss+3VV191ZXz88cdFjoRvv/3WWrRoYVWrVrUVK1Y4cblo0SLbb7/9XNrvvvvOevfubfPnz7chQ4bYrbfemi/PCy64wF544QVXn1mzZuW5/uSTT1q/fv3cZxs3bnT5YxCAAAQgAAEIQCAeApEVdi1btnSiTd64q6++2omlsWPH2j/+8Q87+OCDixR2zz77rF100UX5GDRr1sx5xPbZZx93LVFh9/bbb1uXLl1c2jVr1litWrUSFnZZWVm59ZKn0W8Iu3iGLfdAAAIQgAAEIBCLQOSF3WWXXWa9evVynq+ZM2fGJex+++0356GTnXjiiXbFFVc4Eaa/s7OzrVu3bjZmzBh3XYLxjTfeiNtjJ89hz549XdqffvrJGjduvMvC7osvvrBHHnnE5fnUU0/l9hMeOx5aCEAAAhCAAAQSIRB5YRdsjN9jp2sSaRJmMi8U+/rrr1uPHj3cZ+vWrbM99tjD/fuJJ54wCcVYFm8o9s4777Sbb77ZZfHWW2/ZX//61zzC7pBDDnFhWFmsUOz69etz66N7FLqVZ7Jr1675qoWwS2Qocy8EIAABCEAAApEXdhJKCr1OnDjRVq1alcdjF+w+T9hpXd0ZZ5zhLktIVa9e3f1b3rBLL7202MJu27Zt1qpVKyfEZCeddJITd/q/t8bOn3ksYTd48GAbNmxY7m2nnnqqPfbYYzZt2jT3ma59/fXX7t8IOx5QCEAAAhCAAAQSIRB5YVfYGjs1VCFMefFknrCTl05r3zzxNWjQILfRoX///i4U2717d7epQpbIGjuJLgkzvylErNCsBJ9MHr2bbrrJ/Tso7Pzr81q3bm0Kwcq0+1X3akMGa+wSGb7cCwEIQAACEICAn0DkhV3btm3t0EMPtTfffNOWLl0a1xo7NbCgsGvDhg2dANTmjHiFncSgNnCMHDnSpZG4W7ZsmdvZGrRYu2K1Fu+f//xn7ro+beDQ8Sha3ydPpEw7dbWLd/r06eyK5RmFAAQgAAEIQKBYBCIv7IKtindXrNJJJGmzg44UqV27tjtTrm/fvla/fv3cbOPx2PmPM9FavEmTJlnZsmWdp03hXa3be/zxx12esYTde++9Z8cff7y7LmH52muvWbt27WzTpk1211132dChQ931d99913TMC8edFGsskwgCEIAABCCQ8QQiK+zkVZOnLGhNmjSxzz77rMjjTrx0End//vmnyUvmeen8eUqkffXVV+6AYh1wXJAp5CuP4R133OFEnWcSjfXq1cvd/CBxplBv8By7K6+80oWHFRYOnk2n8qtVq+Z22PqPaWGNXcY/nwCAAAQgAAEIJEQgssLOa8WXX36ZT+DpOBNtpNCvMkiQSejJJKgkjvxWt25dd+8tt9xit912Wz44OrD4ueeei/u4Ey8DiU6FTn/++Wd37MnmzZtNZUk8apOFzqrTvw888MB8ZQq6Qss6T0+HLesg5nLlypnCzp06dbIOHTrk2TmbUI9yMwQgAAEIQAACGUsg8sLuiCOOsNmzZ8fVQcFfnlAiT9hpDZvCoEHTL0lIpMV73InSP/roo3b99dfH9CjqujZBSERqXV7Qvv/+ezv22GOd968wk6dRv7qBQQACEIAABCAAgXgJRF7YaR2b9zussRqlHbCffvqpu1SYsCsKSLzC7pdffsn1CiqNjitRmFema1pPpyNQZPLo6fdi/da5c2e3lk7iT7tslYeOY1FHyDspz+IPP/zgRKjywyAAAQhAAAIQgEC8BCIv7IpqyMKFC23//fcvUtgNGDAg31ElSqTNGDrQOF5hp7Ctwrcyed0aNGiQp4raEFG5cmX3Wazwb6NGjVw6Haw8YcKEfM3T4cc6MkX2+++/OwGIQQACEIAABCAAgXgIZIywO+CAA9yxKUGTh01CK15ht3LlSttrr71cNvLU6Rcj9HeVKlXcernRo0fnHjCsDRQ6XNlvEpjez4dpJ6x26urnzzZs2ODWCmoXr0zr7GbMmBFPH3IPBCAAAQhAAAIQcAQyRtgV1d/xCjvlo5CvQsTeAcPBvBVGve+++2LustUO3YEDB7oz8GLt+lVe8ubJM1ijRo2iqs11CEAAAhCAAAQgkEtgtxd2a9ascYcRy3QmnbfezWuh1rtJTBVl+j1Zec/itR07dtjnn3/uzq3TrljtatWOXIVa9asS5cuXLzSr7du327x589z6QAk8la8NHhKY/nP24q0P90EAAhCAAAQgAIHdXtjRhRCAAAQgAAEIQAAC/08AYcdIgAAEIAABCEAAAmlCAGGXJh1JMyAAAQhAAAIQgADCjjEAAQhAAAIQgAAE0oQAwi5NOpJmQAACEIAABCAAAYQdYwACEIAABCAAAQikCQGEXZp0JM2AAAQgAAEIQAACCDvGAAQgAAEIQAACEEgTAgi7NOlImgEBCEAAAhCAAAQQdowBCEAAAhCAAAQgkCYEEHZp0pE0AwIQgAAEIAABCCDsGAMQgAAEIAABCEAgTQgg7NKkI2kGBCAAAQhAAAIQQNgxBiAAAQhAAAIQgECaEEDYpUlH0gwIQAACEIAABCCAsGMMQAACEIAABCAAgTQhgLBLk46kGRCAAAQgAAEIQABhxxiAAAQgAAEIQAACaUIAYZcmHUkzIAABCEAAAhCAAMKOMQABCEAAAhCAAATShADCLk06kmZAAAIQgAAEIAABhB1jAAIQgAAEIAABCKQJAYRdmnQkzYAABCAAAQhAAAIIO8YABCAAAQhAAAIQSBMCCLs06UiaAQEIQAACEIAABBB2jAEIQAACEIAABCCQJgQQdmnSkTQDAhCAAAQgAAEIIOwYAxCAAAQgAAEIQCBNCCDs0qQjaQYEIAABCEAAAhBA2DEGIAABCEAAAhCAQJoQQNilSUfSDAhAAAIQgAAEIICwYwxAAAIQgAAEIACBNCGAsEuTjqQZEIAABCAAAQhAILLCbuXKlVa3bl3XQ2vWrLHq1avbuHHjrF27drZgwQLbvHmz9erVy13PycmxJUuW2Pr1661FixZWuXLl3M8vuugiGzFihFWrVi33M6X/8ccf7YcffrBt27ZZ/fr1Xb7NmzcvdEQsXrzYGjZsaJUqVbKff/7ZZs2aZeecc45dcskl9vDDD1uFChVy0+veMmXKWLNmzXI/+89//mO///67nXfeeXnKuf/++613797WuHFj9/nnn39uEydOtJtvvjmuEdqnTx978MEHHaPCTHUaNWqU3XnnnXHlG8ZN4lu2bNncrPT/yy67zB566KHcfvKXs27dOqtYsaL7k4iJ14YNG/KxVR47duywVatWWb169WJm+dlnnznmsUxp/vrXvxZYFY29Tz/91A4//PDce/RZ37597YEHHnDjTuVv374993rp0qXd+Pvvf/9rPXv2tIsvvtgeffTRPONn/PjxVrt2bTvmmGNcOo33/v372xNPPGHlypVLBE2+e5P1bMVbqdtvv926detmBx10kEvyySefOIaxTM+b7vVMbIv7/MbK/8svvzSxHjJkiLus8blz5848t2ZlZTnmBT2/V155pf3tb3+zgw8+2KX79ttvbeTIkXbPPfcUiUTlXXrppfbYY4/l6f9YCfV9cOaZZ1qrVq2KzJcbIACBzCUQSWGnL+9TTz3VXnvtNfdld8EFF9j111/vxJP+vXDhQjeJ6wt106ZN9s9//tMJpj333NO+++47d2/79u2d4FM+zz33nJskZXfffbctWrTIzjjjDCccNeFK4OnL/a677rL999+/wNFwyimnuC9wTcYSA//+97/tqaeeMn3+yiuvWNWqVXPT6jNNBsrXs2eeecZWr15t1113nW3cuNH9kUl8Xn311XbggQc6Mfj111/b888/7/KWffjhh/bII4/kqZcm+Q4dOrjPVJYEW82aNW3s2LE2evToPPdeeOGFjoPEy7Bhw1xdg/bbb7/lCr499tjD1eXII490TGX+66qj2HXu3LnASUZCS23YsmWLE1Q33XST7b333vbnn3869kFeXn3UlsMOO8xuvfXWfHW84YYb7IsvvjAJI880JiSI/WyDCSXANcm++eabMftWLwU//fRTvmua9DVWVEZBpnF47rnn2htvvJFbr+C4kxibPHlyrsA99NBDHVsJhX/961+540djXZxld9xxh+Ol8S7TNb1EeM+EPps+fbq9/vrr+aomIakXjzFjxriXEL8l89nylyPBoheW2bNnW5MmTeyqq66ypk2bulskZPVHDGR6/iR0g6a+1jU//+I8vxprEo/6rli2bJntu+++riiJJJn659lnn82tm/pU49bjrudBz6J/jH3wwQc2YcIEd4+EnEz5VqlSxb1wqp7ec6a81H49w3p2/OY9D6+++qpLq3EUHKennXaae3713aPn3v8SUeDA5AIEIJCxBCIt7OTFkrdHYkWiS543fWlK2EmQSdjpS/Dtt992HqBSpUrZ+++/7yaUW265xb15yzvlF3byrp144onOQ+aZJkKJrUaNGrk8CzKJDk3iZ599dlzCTvmofvrSlpfk3XffdWJMZalNmuxlEnuauCUMGzRo4DxEfmGntnoiUPdL9MiT43nCHn/88Vxhp7bKOyWhKLv33nvt448/dqJD7fTqFGzj8uXLnedR7ZfnU2JS4kCeJAkz7/q1117rkkrYTp061YYPH+68pH5T/6iNEpGa7NRWCRAJzsKEnSc6DjjgAFfvoCnPo48+2k1yQStM2GkCfvrpp+3FF1+0GjVq5Ev78ssvOwGuCdxv4q626UWhIJNQ6Nevn7300kuOr7xJMrXdG3cSDhqLl19+eW42EgbiorGqFwWJAIlLCT1vTOhvT1gPHTrU9Y9f2Kmf1q5dm69qYqyXnVji2WOcjGfLXxGJGAke1eOdd96xadOmOR4SNkFh99ZbbzkPddD0sqY+8Qu74jy/GrsSzHrpe/LJJ3PHlsa1hLtf2Hl1UJ9IkOn51d8Sqhpj+rfGodjrOVN/yxOucSXBJQ+tnlV51+S1k1jTODrrrLPcGAt6W4PCTnVRhEIvY54pT/1B2BX4GHIBAhDwEYi0sJOIknjRxCthN3jw4FxxInEmEaLJQqJJX7YyeV/+8Y9/OK+PbO7cuXmEnb6ENUnqy1ZePP0tCPJAXXPNNVanTp2YA0Rftvpi9bxJEjb68vYEk38S9bw4ykhf7vJG6DPdI4+gV1ddl3iSZ0LlK5SjiU8eJr+wC1ZI6TWJSBDKNPl4HjvxUDhz4MCB7po8B/L8yNtTmMfOE25irUlEAkCCRmw0SQevK295PDQBeiFxr57yFKlNXshXjE8//XTXDxKvBXnsJFp0j5jKGyqR6zf19/fff58bMq9Vq5bjOWnSJDcZeqLZn0aTrDyimpB1fdCgQfn698Ybb3Rh0b///e/5rmkiPuGEEwr80pAokfiVkJbnUG2XSUz7hZ2Eixeq79q1q2vDfffd5z5T3fzjR/2n8SUO8u6JmfpB4sAv7AqqlDxTEm6eF8h/nyfskvFs+cvRuNBzJmGsMlV3eSH1/6Cwk7fsl19+iclfz4N/iUFxn1/VTS8c6n+/R0wexaCw88ar0uh5UJ/qpUxjyT/GVG+J1uOPP96WLl3qRJ76XF5GeZcl9jT29KwmIuw0HmK9YCLsmLshAIF4CERa2MUTitWXqCZVedG0Vu6FF15wk72ETTAkptCat35GQktv8fry9XtxJGq8kJEHUF+0EpUKKUl09ejRw01QmhCCoVjdK6Egb4DyledLHjaJq6BXSZOF1tZostCko7CZPGBKo9Ch1uJpPY06Sd5Kz7Kzs5335+STT3Yf+UOxsYSd8tN6pq+++soJ41ghyVjCTeuebrvtNhcylHiWt0Rtlkkwq+2xPHa6JtGi6+KpMJiEuTxnW7duzSfsVCd5ryRulG7OnDkuJKV1TwoJe6ZJWV5Vb82VJn2JcwkZtVtelaBoVh5iL7Ev4aa1lApn+ddDKvQtIRrLJOzU37FMXht56zp16mRTpkxxniX1e6xQbCyPXTAUKwGnlwC9YEjQaV2dvF7e+juJA4liCcig2FQbNP415iQMFcIV72DoL5FQbCLPlp+Pt/7V76FSmxS6P+mkk/IJO09Ye2tj/XnJC++FNIv7/Hr56XnTc6Tn0HuBiyXs5P1XP2isyYuqZ0Bcg8+v1raqT9QmmcaJBJ3GjD8U64nyeD12BQk7vUjpml4utbRBa/8wCEAAAkECkRV28vDIPI+YJnxtEAiusdM9eouX50RCrU2bNm7i15decIKVwPLCkQUNhZYtW+ZbgK/JWyEViZNff/3VeR6OOuooJ0D8wk7CQovmJQx1r7yN8rxp0lcYUKLTW2On8vUGro0EWg/ohWvk5ZL3ScJOnjC1R+3S5KawnWcK4UgYyDRh+D12YqFF5zJNTPvss48TvhJc8m751/15+cUSdhJz8q5IzGmClbDTpCWG+qN8NekFN21IxKi/PvroIzeBKmQlUSYBGwzFSihLuJQvX94JYm/9kzxcCp9KxEicScDJCyTh1LFjRzfBSVhJDMsr4p90xVJp5IXTWFAbVH+xlxdJTMRDfLWQ3wufFjQm/OLCu0ceNYWLJRS1fkr8JaTUziOOOCLP2k71s/pUbZEIVX+qbOXhX2MnYacxLtGpcSHTmN1vv/2ceJeIUBhaQjW4oUNiVV66Y4891q3RlLdV4jhoeiaS8Wz5y1H/a12YNyZ1Tc+QhJDGut9jJwYSooWZnmV5xYr7/Hp5q58UjtWY0FiW+YWdvgw1BhXelgDUM68XF73gyHOnP/7n11vPqnEtj6PC8hqHEuPJEHZ60dP3gRjq+wdhx4QOAQjEIhBJYVdQV0kcacG1wpcKi3geK90v0aQvWHnV/KbJV94abxG5vpw1ycYy5e2FcP3XFWZRWND7ItXkqC/y+fPnu0lSIkEhV5Uhz0/r1q1zk0swaTKQCNI1AZeHR6Yvaq1ZkzdNeSpcqolFgsUfitW6QXkv/RsolI/CQDJNJt4kqkky2D6JIm2sSCQUq3zlIZFA0G5k5avJ0AvVql1aR6bJr6BdtpogdZ/a7nnIgsJOok8Toias4EQlz4+8fVpPqGtqr/peQksCU4JSu47/8pe/5POmaMKWV1XtDpomXuXh7YKWZ2rFihUxx4TKUP5BU59IyGtJgGcSVFoTJ97+TTtiJzGnlxTt9lUIWS8jEgxaS6Wwm1iKkcS7rksEySQQJNK7d+9eaCjWL+y0nk3PirchIJ6vvjCeLX85Giveon/1scS3F5r2CzutvYy1ccWfl7gNGDDAfVSc51fp1F/yxOmFQ958vZzpOQ167LzQqjydEqh6lvQypyiA+kve8i5duuRW77333nNiXS8w8i6rDzVGJfKvuOIKd18sj52ecX2v6NnQC4sXNtdLVCyPnb4fNCbYPBHPaOYeCGQ2gUgLO20K0BdvLJPHQh4MzzRZSAAEJ2G95fs3T0jcqNFBk3g55JBD7Pzzzy9wRMi7IAGnL3qZvFYK12gS845u0Of6oteErHCOJnmJEqXZa6+93Lo8b4euytT6HXljFCbVJKIvdrXZL+y06UDCVZO7vvRVfwkmCQJ5B/2hWJUv0avQV3AXXqLCTmFieSXFL5ZHT55BeSxjeQBVD3lI5HmSx8mzonbFFvU4iqk2HsgL5rfCNk8UlefMmTOdlytomngl+LzdybHykWdW4VF/G2PtxhY/f5g4mJcW9UsUeN42rcNTX6utEiQKBRa2xs4v7CSo5W3VJpSCLBnPlr8sjWe9pOhlSeNOXlbPCxlcYydPsnb4xjJ5J73dq7penOdXHnOt2VR9tN7N+7+eWz2LwTV24q5+1YuYnlk9vxKn4imPrH/phrx/utc7qkh1VB/K4+eFkL31ufLISiwqf4lViUF5kBWF8ISd6qSxoiUYuk9LRvRiIHb6HkDYFfU0cx0CEIi0sNPbsYRA0CQ0FOb0LzDWZCHvUXDzg38Ru/KR4JHI8h+Z4YkxhcfkfYtlEnG6rnCX1tLIYySPjUKb8owoLOPteJNXYcaMGW5C9j5Teu3U1SYJ703em6gkGL0Qozw6wc0T8g5qnZznqdIEoXw8T1hQ2Gk3obx/wTVWmlTEM9YZcZ5wE1sNCtVfolNreRT68Qs7hU21JlDntMmbVJDHTiy15si/Ts5j7XlQVUbw3LAgf7X1uOOOcx9L9EpoSWD7TR4xhWDlMStszZw/jTynmti15lAenaBJIMlzU5iwk8D0b9bx8pAokBDw1rip/zVJB01jSGPXv3lCHh+FsZVWXmi1P7h5QmFm/9lv6msJDoVi/SaPsvci4f88Gc9WsG1eOzRO9dKk8SsLCjuNAYlr/4ua7pPHWBwlyjwrzvMrb6iEpcaxZxKeYq/nISjsvCNH/GdT6l49C2qLF8ZVXhJ2eh79ZzV6R6V4wk5CXy8k6k89e1pL6I3/4K5YvUzo+8l71vWdpv5XmuDmCb20aoz5d/gzpUEAAhCItLArqHtihSs0WehL1jsk1EurTQZ+j53CHt5an2D+EnuxjsPQfV6otG3btk7YSYgJntaCSRjobdoTi17YR0c9yJOjz7WbU2E2hej8HohYbSxqV2wwTVDYeYvnJSRjHWYrr6Z/IlJ+nnDTv1VfhZ5UV63lCV7X/zXRKHwqD0JBByOrXvJmBftE6eWJ0VEWOiakKGEnr4kX8tTRNvJExhKTapPapjVzCpMXZVr0rhcBhes1cXtnxvnTaTL2vDax8lMbxUlr7YLmtbGwemgzicZTQef6eWmDwk6hXIkTzyRqJQY88eR9LkEcPMalsPrsyrNVFG/veixhp/4K7kpWGF5hZb+wK+7zW1DdYm2eUJnyVmvDlJ4D7/mVQFSkQC9Nnuk7R8sVvDWt+lxHqGh9aKzzIoP1CAq7whgGhZ08kBJ22uGMQQACEPDPF1nZ2dk5ejPcXUzrgfRWrI0Knin0WdBaHX0he+JDok5pY7VX4ZTCfu1B4S2FRCUcFG6VCNSaPgk1/y9MqE4Sd/qjL3mF2CTwJIS0M7CoRc+a0CQUvTPNiuoXCQN5sLwJXCJAIqWgw5Y1YfkPUy4q/+Jel7CVaJOHL2iqs3Z+JmqaiCXq/KFvLw+1P9ZxJkWVofzk/Srolyk0tgoSR/LWSfzF2tEpD1TQWxmsiwSZPC4aV7Hy8O7XeNOaTImFWDyLamO813fl2Yq3DIXoJUb0kiRTGNY7JiaYh9ZJekf36NquPL+x6jdv3jzHXptW/KYdtHp+tdlCXjZt6tGY07pe//Or8RZraYdeBmIdsh2sg14o9P0h7sHDpIP3aqxJFMd6UYqXPfdBAALpT2C39Nilf7fQQghAAAIQgAAEIJA4AYRd4sxIAQEIQAACEIAABCJJAGEXyW6hUhCAAAQgAAEIQCBxAgi7xJmRAgIQgAAEIAABCESSAMIukt1CpSAAAQhAAAIQgEDiBBB2iTMjBQQgAAEIQAACEIgkAYRdJLuFSkEAAhCAAAQgAIHECSDsEmdGCghAAAIQgAAEIBBJAgi7SHYLlYIABCBzolt2AAAgAElEQVQAAQhAAAKJE0DYJc6MFBCAAAQgAAEIQCCSBBB2kewWKgUBCEAAAhCAAAQSJ4CwS5wZKSAAAQhAAAIQgEAkCSDsItktVAoCEIAABCAAAQgkTgBhlzgzUkAAAhCAAAQgAIFIEkDYRbJbqBQEIAABCEAAAhBInADCLnFmpEghgXXr1tmaNWssJycnhbWgaAhAAAIQgIBZVlaW1a5d22rWrBkZHAi7yHQFFYmHwOLFi61BgwZWpkyZeG7nHghAAAIQgEDSCGzfvt2WLVtmLVq0SFoZiWaMsEuUGPenlMCiRYusSZMmKa0DhUMAAhCAAAQ8AkuWLLGWLVtGBgjCLjJdQUXiIYCwi4cS90AAAhCAQEkRQNiVFGnKSUsCCLu07FYaBQEIQGC3JYCw2227jopHgQDCLgq9QB0gAAEIQIBQLGMAAiEQQNiFAJEsIAABCEAgNAJ47EJDSUaZSABhl4m9TpshAAEIRJcAwi66fUPNdgMCCLvdoJOoIgQgAIEMIoCwy6DOpqnhE0DYhc+UHCEAAQhAoPgEEHbFZ7fLKbdt22Zly5bNk8+dd95pJ598sh188MH58t+0aZNt3brVatSokVDZOkT3mWeesXvuuSdmuuXLl1vdunWtVKlSCeXLzWZhCrtx48bZ8ccfb3vssUcoaGfOnGl77bWX7bvvvqHkp0x+++03mzZtmvXs2bNYeX777be2YsUK69ChQ7HSkwgCEIAABAongLCLc4RIcK1evdoqV65srVq1srZt2+aZML3rEkf6OQ9d79y5c8zcv/nmG7v11ltNf++99942aNAg69ixo7v3wgsvtIsvvtiOOeaYfGnPOecc++qrr+yLL77Id23s2LF2xx13uPp5duONN9opp5xin3/+ud188802ceLEfOn0U1gHHXSQvfnmm9a4ceM4aXCbRyBMYacx8+KLL4Z2sOSVV15pRx55pJ155pmhdZjae95559mnn35arDzHjBljH374oY0YMaJY6UkEAQhAAAIIu1DGwIknnmhnnHGGNWrUyD777DPTBPX444+7iVOm65pAJfrklfj3v/9tV199tfXu3TtP+Tt27LCjjz7ahgwZ4oTff//7Xyfm3n33Xec1K0zYnXrqqfbTTz/FFHajR4+2r7/+2m677bZ87S1M2P38889O/D388MO54jIUYBmSCcIusY5G2CXGi7shAAEIJEoAj12cxCTc5PXyPGmvvvqqDR061Hkuypcv74Sd/7o8eBs2bLD77rsvTwkSfRdccIF9/PHHuZ/369fPevXqZZ06dSpQ2Cmc6oW/HnjgATvhhBPy5Cthd9dddznR6Jk8fBJs8gzqB4Hff//9PGnkrbv++uvtgw8+cN66F154wcqVKxcnEW4TgUSFnTxyXbt2tSlTpph+ZkViXeFSmTx2eiHQGNm4cWOea1OnTnWePHlsdV1j5YADDsjtBL0gyBOm36zt0qWLewEJeux+/PFHmz59um3evNmFfL30S5cutblz59rpp5/u8vvll1/cy8tpp53m/r9mzRpXX/2tn0/T2C7IY6f2nXTSSfbGG2+4e1VP1Vfh29KlS7ulBBrLnsdOLzSqe506ddwLRpR+uJoRDgEIQKAkCcyYMcOeffZZW7VqVZ5i9f3Yp0+fmJG8WPVD2MXZa0Hh9ueff7qJWAJPE6SuX3PNNe4zCambbrrJ+vfvn89jt2XLFjv88MPttddecz/Sq/CuJlBNiM2bN48p7D755BM3SQ8ePNgJMOV7ww03uIkwKyvLtUDCbvLkyXk8dhIMmsTnz59vDz74YJ5QrETF/fff74SC1t9JlKpuCudqEGHxEUhU2Gl8NGjQwIkveVi/++47mzRpUq6wk7Dp0aNHvmvq/4ULF7oHW+Jbni+F1tXHCqPLU3vppZea1m3KKzxgwIA8wk5j8rLLLrPu3btbxYoV7emnnza9IOhFQGvx/vWvf9mECRNcPfQCoBcCrfn7/fff3RdKw4YN7aijjnLjVgKxIGGn9jVt2tTde+yxx7o1pPJCy3Mtj/TIkSOtTZs2Tti9/fbbrhy92OiLSGJU9cMgAAEIZCKB7du3u2VaejHWS7BM3/fdunVzn+vFPR5D2MVD6X+hVr9HTsnkeZHIksCSsJNYkvdu3bp1bhJ76qmnYv5AvCZyecoOOeQQ5/GRB+/yyy93NfGHYuVJkUBUJ6lsz0v35Zdf2i233OLu1+fKR8JNAk0hXg0IeQu1SF33aU2ef42d3giefPJJF3qVWNRmDAmCRx991OWhkLPywYomUBxhJzHTvn17J+o1hjyBJlFU0DUJO3nsNN5k6iMJOYXzJaAk9OUp85vfY6fxJsGu5QGy559/3nnhXn755UKF3fjx4+2ll15yLzASaf41dqNGjXL1lWndncpTGyQqNaZlKrdq1aqufjJ/KFbjUJ7rhx56yCpUqFA0bO6AAAQgkOYE1q5da9ddd52LwMj08q2Nj7Vq1Yq75Qi7OFEFPXbyimjnqianQw89NE8oVl4OTYbyoin0FWu3qXa4/vDDD85LUb169dxa+IWdypg1a5YTARKMftO1efPmOa+fhJk8bx999JErS6q+WrVqzpujtEFhJ8+PJlKFyoImsaF1d2oTVjSB4gg7/wYJCSEJpP3339+JooKuBcOqEmjy/Gp3qbxcEmnBMKY/jUSfRJZEoEwvBxdddJHNnj3bjZuCPHYKu2rsXXvttS5dUZsngm3QDm/VVSHZoLDTC5BePFQXrU/V2Pdv/imaPndAAAIQSD8Ccur87W9/cw177rnnXMQkEUPYxUkrKOzmzJljl1xyiRNeElHB6zpCRJNpQbtN5THT7lmF3fxW2OaJoqoqr5vCqwoJ+9fKFbZ5oqg8uV44gVQLO3mLtV5OnjCFQP3mF3YaV/LyeevmNG4VdpcglLBTKFf/lvlDsfKm6Q3S25STqLDTOs+zzjort9xYmycUJtZaVIWoVScMAhCAQKYTmP7eew7B8ccdlzAKhF2cyCTcFLZs3bq1Oz5EngYpaq0PknnCTm5TrUGSF0abEgry2Mm1Ko+ap8q9amidm0SZPG9KL4FYlGnilHnr9yQ6tY7Kn6cWY2p9nhbAayF+UaZ2+hfnF3V/pl5PtbA7++yznedNoX+Fz3fu3GkLFixw3j95yvS3xJXW1L3zzjsuBK/xdcUVV7jjeuTy90LC8hYqXKvPJOa0xk6bHjTu5X3W0TzKR38KW2Pn9zpKsMljrE0hWg+qI3hkWmOnhcLyVO655572yiuvuLKUNwYBCEAAAsUngLCLk52E28qVK93dOuJEIS1PUHnCzruukJjOhpPHpFmzZjFL6Nu3rwuZakF70JReIkwT3bJly4qsobeeSTspjzjiCHvsscdihrQk1BQm1iaLokxh5gMPPLCo2zL+enGEnda1eYcGS3hpN/J+++3nRFhB1yTSNO60e1qm/7dr186NQQkznYWozRgyib2BAwe643i0WUEvCAqn3n333W5Rrkxevttvvz03xK+Qq65VqlTJzj//fCcC5V3Tzul7773XbZqQyUMoL3Rhws7fBq07veqqq9zOV+WtNmgZgoSd1nNqrV+VKlXc+lSJQIWXMQhAAAIQKD4BhF3x2e1SSq3N0+SoMG7QtL7Nm8ATKcTz2CkErKMlguZtlEgkT+4tnECiwi6ZPCXa5Y3zNiJIlMlDq0W33jpPjRF59SSygqb0Elmx1oRqd7Xyi5UunjZpM4/yDo5L1UXeQX8d48mPeyAAAQhAIDYBhB0jAwK7QCBKwm4XmkFSCEAAAhBIEwIIuzTpSJqRGgIIu9Rwp1QIQAACEMBjxxiAQOgEEHahIyVDCEAAAhDYBQJ47HYBHkkhgLBjDEAAAhCAQJQIIOyi1BvUZbcjgLDb7bqMCkMAAhBIawIIu7TuXhqXbAIIu2QTJn8IQAACEEiEAMIuEVrcC4EAgcWLF7tfTIj3x5kBCAEIQAACEEgWge3bt7vzb/Vzo1ExnVOalZ2dnaMzrzAIRJ2Afu9UZ8XpjDcMAhCAAAQgkEoC+oUf/Vxp8LfDU1knhF0q6VM2BCAAAQhAAAIQCJEAwi5EmGQFAQhAAAIQgAAEUkkAYZdK+pQNAQhAAAIQgAAEQiSAsAsRJllBAAIQgAAEIACBVBJA2KWSPmVDAAIQgAAEIACBEAkg7EKESVYQgAAEIAABCEAglQQQdqmkT9kQgAAEIAABCEAgRAIIuxBhkhUEIAABCEAAAhBIJQGEXSrpUzYEIAABCEAAAhAIkQDCLkSYZAUBCEAAAhCAAARSSQBhl0r6lA0BCEAAAhCAAARCJICwCxEmWUEAAhCAAAQgAIFUEkDYpZI+ZUMAAhCAAAQgAIEQCSDsQoRJVsknsG7dOluzZo3l5OQkvzBKgAAEIAABCBRCICsry2rXrm01a9aMDCeEXWS6gorEQ2Dx4sXWtGlTK1u2bDy3cw8EIAABCEAgaQS2bdtmP/74o7Vo0SJpZSSaMcIuUWLcn1ICixYtspYtW6a0DhQOAQhAAAIQ8AhEbV5C2DE2dysCUXuAdit4VBYCEIAABEInELV5CWEXeheTYTIJRO0BSmZbyRsCEIAABKJPIGrzEsIu+mOGGvoIRO0BonMgAAEIQCCzCURtXkLYZfZ43O1aH7UHaLcDSIUhAAEIQCBUAlGblxB2oXYvmSWbQNQeoGS3l/whAAEIQCDaBKI2LyHsoj1eqF2AQNQeIDoIAhCAAASiQeDXX381nStXr169Eq1Q1OalyAq7lStXWt26dV3n6EDa6tWr27hx46xdu3a2YMEC27Rpk/Xu3dtd37lzp/3000+2fv16d5ZM5cqV3ec6xPbcc8+1xx9/3KpVqxZ3R//555/Wp08fe+aZZ6xChQou3fjx42358uUx81CdDjvssLjz58biE4jaA1T8lpASAhCAAATCJHDNNddYz5497Ygjjggz2yLzitq8FElhJ6HWpk0b++STT5ywUkfdeeeddv/999sll1xi33zzjRNxV111lRN4V199ta1du9YaNGjg0jzwwAPWvn17J+wOOuggmz59ujsZOmgSakOHDrW5c+dap06d7MYbb3TlbdmyxQ4//HCbPXu2VapUySWbP3++6VcPgibBJ1F30UUXFdn53LDrBKL2AO16i8gBAhCAAATiITBmzBh77bXXbJ999rHLL7/cGjVqlJts+/bt1qFDB5s5c2bunP3GG2/YwQcf7DSEZ7/88os99thj9t1337nPPQeRrheWf2H1i9q8FGlhJ/Vdrlw5e+KJJ5zX7b777rNzzjnHFi5caDrtWcLuzTfftIkTJ7qOKlWqlH3wwQc2YMAAe/rpp52wkxCMJex07fzzz3cC8IwzzrDhw4c7r+BNN90UU9g9+OCD9tVXX+XrWw2OCy64AGEXz1MZwj1Re4BCaBJZQAACEIBAEQRmzZplV155pT3yyCM2depU+/LLL+3VV191875MjhgJM83lcvQMHjzYOWR69erl/i2T0+iss86yVq1aWefOne3vf/+7PfTQQ3bUUUdZUfkj7HZxiHoeu+uvv979dJQ6UsJO4dGNGze63OUhk7B77rnnbMWKFbkdt2TJEjvttNOsW7du7j4p9ljCTrF4CTp1ZunSpV2YtUePHvbRRx+ZQrFBj12/fv2sS5cu7o0gaBUrVsz17O1i00leBAGEHUMEAhCAQOYRkJNGy5769u3rnC+HHnqoE3J/+ctfHAxF9fSZ5mnP5KipUqVKrj7QMi556BSl07w9cuRIF+WT86io/BF2uzjmEgnF/vDDD24dnZR8/fr1XUe1bt3a5O0rLBQrAffkk086YeiZ0k2bNs2qVq2aT9jpmqxhw4b5WicReOutt+5iq0keDwGEXTyUuAcCEIBAehE48cQTbciQIXb00Ue7hnXv3t2FY+V501zfsWNHmzRpkpu/CxJ2U6ZMcU6i119/3d0ix85tt91m7777rhWWf1EkozYvRTYUK9eorHz58s6D9vzzz9u9996bb42d7tEPw0+ePNm5Xw855BDnrZN7tjBhJ+UuNe91sMpo27atU+8yv8dOHj/lVZjVqlXLrQvEkksgag9QcltL7hCAAAQgIAJNmjRxws3z0MnDpgialkJpedY999yTx1GjNEGPnXSEnDry0MmkA04++WRTpK+w/IvqgajNS5EUdgVBfOGFF1ws/Oeff3YhWXWIZ6NGjbJjjjnGdY7fhg0b5tbceZsgvGvadKH1dVqj17hxY7c2T5sztF4vuHlC6+uKEnZNmza1008/vaj+5/ouEojaA7SLzSE5BCAAAQjEQUDzu9bZKxwr01o5RetOPfVUe/TRR22PPfZwa/D9FhR2mt9feukltzZPNmfOHLv22mttxowZTj8UlH9R1YvavBRpYacNEe+//35MpnLDqmM9O++889zOVi2K9JvW4hW0K1YdrD9y4U6YMCF3N22sXbHy7MkzGMuUXiIRSz6BqD1AyW8xJUAAAhCAgDxzWj+vnaxytOg0Cm2S1K7XU045xZ566ql859cFhd1nn33m1uhpjZ3Ou9MRahJ7WpJVWP5F0Y/avBRpYafKbd68OR9TdYI2VWjzhF/Y6aw6rbPzmxZXFiTsNDi0s+brr792YdjmzZu7pLGE3aBBg9xxKgrR+k1br+Ua1mDBkk8gag9Q8ltMCRCAAAQgoIjd6NGjbezYsW5O12YJ/a2jzxSWVfTNsx07drgdsFr7riPMtCu2TJkyTk8ofKvP5QjSjlk5iOQYKih/bbIoyqI2L0Va2BUEU4sfJb6Cwk6dpDV2flO4tiBhV1D+BQk7baA47rjj8iTTZg1tqEDYFTX0w7ketQconFaRCwQgAAEIFEZA59Rpk6TW2WlNu5ZISaS9/PLLTtz1798/N/mIESNcBM5vL774ott44R1rojX50ge6V6KvoPzj6ZWozUu7pbBTB0l5S6V7dtddd5l2yMYydXCivzxx0kkn2VtvveW2RMsUFpb7NpYpLCxXMJZ8AlF7gJLfYkqAAAQgAAGPwIYNG9wRJjqmTKYQ6g033GD77bdf3JDk0ZP40dm1QQvmH0+mUZuXdkthFw9o7klPAlF7gNKTMq2CAAQgsHsQ0HIqra3XmrlUWdTmJYRdqkYC5RaLQNQeoGI1gkQQgAAEIJA2BKI2LyHs0mZoZUZDovYAZQZ1WgkBCEAAAgURiNq8hLBjrO5WBKL2AO1W8KgsBCAAAQiETiBq8xLCLvQuJsNkEojaA5TMtpI3BCAAAQhEn0DU5iWEXfTHDDX0EYjaA0TnQAACEIBAZhOI2ryEsMvs8bjbtV6//qGfb9MB1RgEIAABCEAglQS2bdtmP/74o7Vo0SKV1chTNsIuMl1BReIhsG7dOluzZk2Rv90bT17cAwEIQAACENgVAjpmpXbt2lazZs1dySbUtAi7UHGSGQQgAAEIQAACEEgdAYRd6thTMgQgAAEIQAACEAiVAMIuVJxkBgEIQAACEIAABFJHAGGXOvaUDAEIQAACEIAABEIlgLALFSeZQQACEIAABCAAgdQRQNiljj0lQwACEIAABCAAgVAJIOxCxUlmEIAABCAAAQhAIHUEEHapY0/JEIAABCAAAQhAIFQCCLtQcZIZBCAAAQhAAAIQSB0BhF3q2FMyBCAAAQhAAAIQCJUAwi5UnGQGAQhAAAIQgAAEUkcAYZc69pQMAQhAAAIQgAAEQiWAsAsVJ5lBAAIQgAAEIACB1BFA2KWOPSVDAAIQgAAEIACBUAkg7ELFSWYQgAAEIAABCEAgdQQQdqljT8kQgAAEIAABCEAgVAIIu1BxkhkEIAABCEAAAhBIHQGEXerYUzIEIAABCEAAAhAIlQDCLlScZAYBCEAAAhCAAARSRwBhlzr2lAwBCEAAAhCAAARCJYCwCxUnmUEAAhCAAAQgAIHUEUDYpY49JUMAAhCAAAQgAIFQCSDsQsVJZhCAAAQgAAEIQCB1BBB2qWNPyRCAAAQgAAEIQCBUAgi7UHGSGQQgAAEIQAACEEgdAYRd6thTMgQgAAEIQAACEAiVAMIuVJxkBgEIQAACEIAABFJHAGGXOvaUDAEIQAACEIAABEIlgLALFSeZQQACEIAABCAAgdQRQNiljj0lQwACEIAABCAAgVAJIOxCxUlmEIAABCAAAQhAIHUEEHapY0/JEIAABCCwiwSmTp1qkydPtm3btu1iTpmTvGzZsta1a1fr1KlTnkY//Ea2DRu9wbZszckcGLvY0grlsuy6M6vbgG5VdzGn8JIj7MJjSU4QgAAEIFDCBAYOHIioKwZzibvhw4fnSdnwnKWIumKwlLhb+nLDYqRMThKEXXK4kisEIAABCJQAgQEDBpRAKelZxMMPP5ynYbV7/pKeDS2BVq15rVEJlBJfEQi7+DhxFwQgAAEIRJAAwq74nYKwKz67YEqEXXgsyQkCEIAABDKYAMKu+J2PsCs+O4RdeOzICQIQgAAEIJBLAGFX/MGAsCs+O4RdeOzICQIQgAAEIICwC2EMIOxCgPi/LAjFhseSnCAAAQhAIIMJ4LErfucj7IrPDo9deOzICQIQgAAEIIDHLoQxgLALASIeu/AgkhMEIAABCEAAj13xxwDCrvjs8NiFx46cIAABCEAAAnjsQhgDCLsQIOKxCw8iOUEAAhCAAARS6bFr3bq1+9WLb775JrcjatWqZW3atLFp06ZFvnOiKuzq7lHaNm3JsXJlzc47oYr9+z/Ztm1HfD9zdsXp1WzSJ5vs+1+3lyh/Nk+UKG4KgwAEIACBdCWQSmF3++2328aNG23YsGG5eI8++mg788wz7YorrrCcnPxiJCsry0aMGGGjRo2yuXPnprRboiLslr3S0B4c/7vdN/Z3x+OnFxva6x9uskmfbLZXrq9t+1y4zNZv3JmH1aqxjWz8rE122Yi1eT6XwBoyar09+p/sEmWLsCtR3BQGAQhAAALpSqCkhV2XLl1Mf2QSaTJPwI0ePdp9Vpiwq1y5st1zzz32+eef28iRI1PaLVERdhJFn3231U4cvDJuYac0q9bvsAP6/oqwC4wiflIspY8VhUMAAhCAwK4QKGlhV7FiRatRo4ar8g033OD+Hjp0qPt79erV1r59+0KFXceOHa1nz562dOnSPJ6+XWFQ3LRREHalsszkffvm523WYeAK15SfX2po78zbbFPmbrbHrqiVz2NXrVIp+2FUA9uwcac1v3CZPXNNLTvygPIube3qpfHY/fGHZWVnZ+dUqVKluGODdBCAAAQgAIGUEChpYec1UuJMIk02c+ZMGzNmjPt3YaFYeesUvi1TpoyVKlXKeezkuUuVRUHYndGhkj1xZS37Y3OONb9wqe3YabZ6bCP7nzPUoQmGYgefVd0G9axminQfd+0K27dBWWvVpKy798ru1RB2CLtUPVKUCwEIQAACu0qgpIWdNkx069bN6tSpY5MnT7adO3faKaec4tbaSdxVqlQppseuefPmdvnllztRd8cdd1i/fv1sr732srfeesv9SYWlWtjVqFzKvnyyvq34bYftXbeMffz1n9bz9tX2/agGzlv31qeb7cmr8nrsDmpWzqYOq+uuHdainFUqX8q63LjSefxkrLEzIxSbiqeJMiEAAQhAIBQCJS3sOnfubO3atbOJEyfmetvq1atnPXr0sLffftv0b/8aOwnB7t27W+3atS07O9ttnFi5cqXz2PXv399atmxpW7ZssdmzZ9u4ceNCYRJvJqkUdke3Km9jbtzTLMvs0P7L7dT2leyuPjVsycrtVqdG6ZibJxSW7dmhkq37Y6e16vurNdmrjL09tI5Vr1zK+o1Ya+NmbkLYGcIu3vHPfRCAAAQgEEECJSnsqlWrZr169XKiTH+aNGni/t6wYYMpzFqhQgV75513nAfP2xXbuHFjO/fcc+3DDz+0GTNmOIIDBw60SZMm2aJFi6xZs2ZuM8ayZctswoQJJUo4lcJu7zpl7JlBteycu9fYyt92uHY3r1/GGu9Zxp4dVNtem7nRpszbkmdX7Jib9rR12TttwCPrco8/0Rq9686sbv8a97tt3ZaDsEPYlegzRGEQgAAEIBAygZIUdlqLftVVV7ldsArB1q9f37Vm/vz5tmrVKlu+fLlVrVrVbY4o6LgT3S9BNX78eHvvvfdCppFYdqkUdsGaavPD8W0qOC9cxXJZ9u2y7TZrwRY7oU1Fu+X59fnOsevStqJ1PqyiHbpvOatdrZStXr/T3pq72d6cvckWL9vuRF5JGsedlCRtyoIABCAAgbQlUJLCLghxyJAh7oBib1esrhd1jh3CLv9QnH5vXWvdrJw7q27Zmh1WprRZ/VqlrWrFUjbho03Wd3jes+peGlzbTjqson3541abu3irbdySY83qlbFOB1dwmR/Y71db+3vec++S/QAg7JJNmPwhAAEIQCAjCERd2CnsqiNS/KZNEzt27HDHo/hNodgFCxaUWL9FwWO3f+OyNnP4XvbMlD/sn0/9lqftL15X2/7atmK+XbErRjey6Z9vdmFcvymUO+ehenbLqPXu1ypK0hB2JUmbsiAAAQhAIG0JRF3YaX2d1t7FY++//759//338dwayj1REHbly2bZLy83tLUbdtidL2+wWV/9aZu25tiR+5e3ey6uYVUqlrJG5y7N097/Pl7f9qxeyoa+usHenbfFft+001o1LWe3nFvdJBQ7D15p87/bGgqjeDNB2MVLivsgAAEIQAAChRBIpbDr06ePC8W++OKLuTXs0KGD9e7du9A1dlHp0CgIO7Fov195G9G/pjWqU9rKlfn/X/PQGjmtlfv7w2ttwU//f5SJZ7WqlrLHr6plbVuUtyoV///+nTlmv67dYbe9sN7tqC1pQ9iVNHHKgwAEIACBtCSQSmEXC2jp0qVd6FVniUXdoiLs/Jy0y1UiLV7T/TrMWAcbp9IQdqmkT9kQgAAEIJA2BKIm7HYnsFEUdrsTP39dEXa7a89RbwhAAAIQiBQBhKx7Oy0AAANGSURBVF3xuwNhV3x2wZQIu/BYkhMEIAABCGQwAYRd8TsfYVd8dgi78NiREwQgAAEIQCCXAMKu+IMBYVd8dgi78NiREwQgAAEIQABhF8IYQNiFAPF/WRCKDY8lOUEAAhCAQAYTwGNX/M5H2BWfHR678NiREwQgAAEIQACPXQhjAGEXAkQ8duFBJCcIQAACEIAAHrvijwGEXfHZ4bELjx05QQACEIAABPDYhTAGEHYhQMRjFx5EcoIABCAAAQgMHDjQ/awXlhiBsmXL2vDhw/MkanjOUtuyNYGffUisyLS9u0K5LFv6csPItE+/epKVnZ2dU6VKlchUiopAAAIQgAAE4iEwdepUmzx5MuIuHlj/u0eirmvXrtapU6c8qR5+I9uGjd6AuEuApUTddWdWtwHdqiaQKrm3IuySy5fcIQABCEAAAhCAQIkRQNiVGGoKggAEIAABCEAAAsklgLBLLl9yhwAEIAABCEAAAiVGAGFXYqgpCAIQgAAEIAABCCSXAMIuuXzJHQIQgAAEIAABCJQYAYRdiaGmIAhAAAIQgAAEIJBcAgi75PIldwhAAAIQgAAEIFBiBBB2JYaagiAAAQhAAAIQgEByCSDsksuX3CEAAQhAAAIQgECJEUDYlRhqCoIABCAAAQhAAALJJYCwSy5fcocABCAAAQhAAAIlRgBhV2KoKQgCEIAABCAAAQgklwDCLrl8yR0CEIAABCAAAQiUGAGEXYmhpiAIQAACEIAABCCQXAIIu+TyJXcIQAACEIAABCBQYgQQdiWGmoIgAAEIQAACEIBAcgkg7JLLl9whAAEIQAACEIBAiRFA2JUYagqCAAQgAAEIQAACySWAsEsuX3KHAAQgAAEIQAACJUYAYVdiqCkIAhCAAAQgAAEIJJcAwi65fMkdAhCAAAQgAAEIlBgBhF2JoaYgCEAAAhCAAAQgkFwCCLvk8iV3CEAAAhCAAAQgUGIEnLD7448/cipXrlxihVIQBCAAAQhAAAIQgED4BDZu3GhZS5cuzalXr56VKlUq/BLIEQIQgAAEIAABCEAg6QR27txpy5cvt6zp06fntGvXzipUqIC4Szp2CoAABCAAAQhAAALhEpCo27Jli82ZM8f+D9m/Nkre6wIZAAAAAElFTkSuQmCC;imageBorder=default;" vertex="1" parent="1">
          <mxGeometry x="40" y="40" width="630" height="280" as="geometry" />
        </mxCell>
        <mxCell id="3rU5uwpI67zHj25wgRQa-5" value="❷" style="text;whiteSpace=wrap;html=1;fontFamily=Noto Sans KR;fontSize=24;fillColor=none;labelBackgroundColor=none;fontColor=default;" vertex="1" parent="1">
          <mxGeometry x="190" y="150" width="30" height="40" as="geometry" />
        </mxCell>
        <mxCell id="3rU5uwpI67zHj25wgRQa-6" value="❸" style="text;whiteSpace=wrap;html=1;fontFamily=Noto Sans KR;fontSize=24;fillColor=none;labelBackgroundColor=none;fontColor=default;" vertex="1" parent="1">
          <mxGeometry x="190" y="190" width="30" height="40" as="geometry" />
        </mxCell>
        <mxCell id="3rU5uwpI67zHj25wgRQa-7" value="❷" style="text;whiteSpace=wrap;html=1;fontFamily=Noto Sans KR;fontSize=24;fillColor=none;labelBackgroundColor=none;fontColor=default;" vertex="1" parent="1">
          <mxGeometry x="190" y="510" width="30" height="40" as="geometry" />
        </mxCell>
        <mxCell id="3rU5uwpI67zHj25wgRQa-8" value="❸" style="text;whiteSpace=wrap;html=1;fontFamily=Noto Sans KR;fontSize=24;fillColor=none;labelBackgroundColor=none;fontColor=default;" vertex="1" parent="1">
          <mxGeometry x="190" y="550" width="30" height="40" as="geometry" />
        </mxCell>
        <mxCell id="3rU5uwpI67zHj25wgRQa-9" value="❷" style="text;whiteSpace=wrap;html=1;fontFamily=Noto Sans KR;fontSize=24;fillColor=none;labelBackgroundColor=none;fontColor=default;" vertex="1" parent="1">
          <mxGeometry x="190" y="870" width="30" height="40" as="geometry" />
        </mxCell>
        <mxCell id="3rU5uwpI67zHj25wgRQa-10" value="❸" style="text;whiteSpace=wrap;html=1;fontFamily=Noto Sans KR;fontSize=24;fillColor=none;labelBackgroundColor=none;fontColor=default;" vertex="1" parent="1">
          <mxGeometry x="190" y="910" width="30" height="40" as="geometry" />
        </mxCell>
      </root>
    </mxGraphModel>
  </diagram>
</mxfile>
